<svg xmlns="http://www.w3.org/2000/svg" xmlns:xlink="http://www.w3.org/1999/xlink" contentStyleType="text/css" data-diagram-type="DESCRIPTION" height="1164px" preserveAspectRatio="none" style="width:1137px;height:1164px;" version="1.1" viewBox="0 0 1137 1164" width="1137px" zoomAndPan="magnify"><defs/><g><!--entity sgx_ra_service--><g class="entity" data-entity="sgx_ra_service" data-source-line="36" data-uid="ent0002" id="entity_sgx_ra_service"><rect fill="#EEEEEE" height="43.2813" rx="2.5" ry="2.5" style="stroke:#181818;stroke-width:0.5;" width="161.5039" x="970.44" y="7"/><text fill="#000000" font-family="sans-serif" font-size="20" lengthAdjust="spacing" textLength="141.5039" x="980.44" y="35.5645">sgx-ra-service</text></g><!--entity tee_appraisal_tool--><g class="entity" data-entity="tee_appraisal_tool" data-source-line="37" data-uid="ent0003" id="entity_tee_appraisal_tool"><rect fill="#EEEEEE" height="43.2813" rx="2.5" ry="2.5" style="stroke:#181818;stroke-width:0.5;" width="196.6699" x="444.86" y="7"/><text fill="#000000" font-family="sans-serif" font-size="20" lengthAdjust="spacing" textLength="176.6699" x="454.86" y="35.5645">tee-appraisal-tool</text></g><!--entity tdx_qgs--><g class="entity" data-entity="tdx_qgs" data-source-line="38" data-uid="ent0004" id="entity_tdx_qgs"><rect fill="#EEEEEE" height="43.2813" rx="2.5" ry="2.5" style="stroke:#181818;stroke-width:0.5;" width="95.4004" x="314.5" y="7"/><text fill="#000000" font-family="sans-serif" font-size="20" lengthAdjust="spacing" textLength="75.4004" x="324.5" y="35.5645">tdx-qgs</text></g><!--entity sgx_pck_id_ret_tool--><g class="entity" data-entity="sgx_pck_id_ret_tool" data-source-line="39" data-uid="ent0005" id="entity_sgx_pck_id_ret_tool"><rect fill="#EEEEEE" height="43.2813" rx="2.5" ry="2.5" style="stroke:#181818;stroke-width:0.5;" width="259.3164" x="676.54" y="7"/><text fill="#000000" font-family="sans-serif" font-size="20" lengthAdjust="spacing" textLength="239.3164" x="686.54" y="35.5645">sgx-pck-id-retrieval-tool</text></g><!--entity tdx_app--><g class="entity" data-entity="tdx_app" data-source-line="42" data-uid="ent0006" id="entity_tdx_app"><rect fill="#FFBA53" height="43.2813" rx="2.5" ry="2.5" style="stroke:#181818;stroke-width:0.5;" width="160.3906" x="7" y="7"/><text fill="#000000" font-family="sans-serif" font-size="20" lengthAdjust="spacing" textLength="140.3906" x="17" y="35.5645">tdx-guest-app</text></g><!--entity lib_dcap_default_qpl--><g class="entity" data-entity="lib_dcap_default_qpl" data-source-line="45" data-uid="ent0007" id="entity_lib_dcap_default_qpl"><rect fill="#D6E9F8" height="43.2813" rx="2.5" ry="2.5" style="stroke:#181818;stroke-width:0.5;" width="250.3711" x="261.01" y="936.53"/><text fill="#000000" font-family="sans-serif" font-size="20" lengthAdjust="spacing" textLength="230.3711" x="271.01" y="965.0945">libsgx-dcap-default-qpl</text></g><!--entity sgx_dcap_pccs--><g class="entity" data-entity="sgx_dcap_pccs" data-source-line="46" data-uid="ent0008" id="entity_sgx_dcap_pccs"><rect fill="#D6E9F8" height="43.2813" rx="2.5" ry="2.5" style="stroke:#181818;stroke-width:0.5;" width="163.1348" x="546.63" y="936.53"/><text fill="#000000" font-family="sans-serif" font-size="20" lengthAdjust="spacing" textLength="143.1348" x="556.63" y="965.0945">sgx-dcap-pccs</text></g><!--entity lib_headers--><g class="entity" data-entity="lib_headers" data-source-line="47" data-uid="ent0009" id="entity_lib_headers"><rect fill="#D6E9F8" height="43.2813" rx="2.5" ry="2.5" style="stroke:#181818;stroke-width:0.5;" width="166.8555" x="744.77" y="936.53"/><text fill="#000000" font-family="sans-serif" font-size="20" lengthAdjust="spacing" textLength="146.8555" x="754.77" y="965.0945">libsgx-headers</text></g><!--entity lib_pce_logic--><g class="entity" data-entity="lib_pce_logic" data-source-line="48" data-uid="ent0010" id="entity_lib_pce_logic"><rect fill="#D6E9F8" height="43.2813" rx="2.5" ry="2.5" style="stroke:#181818;stroke-width:0.5;" width="176.2305" x="585.08" y="213.56"/><text fill="#000000" font-family="sans-serif" font-size="20" lengthAdjust="spacing" textLength="156.2305" x="595.08" y="242.1245">libsgx-pce-logic</text></g><!--entity lib_urts--><g class="entity" data-entity="lib_urts" data-source-line="49" data-uid="ent0011" id="entity_lib_urts"><rect fill="#D6E9F8" height="43.2813" rx="2.5" ry="2.5" style="stroke:#181818;stroke-width:0.5;" width="125.1367" x="472.63" y="316.84"/><text fill="#000000" font-family="sans-serif" font-size="20" lengthAdjust="spacing" textLength="105.1367" x="482.63" y="345.4045">libsgx-urts</text></g><!--entity lib_enclave_common--><g class="entity" data-entity="lib_enclave_common" data-source-line="50" data-uid="ent0012" id="entity_lib_enclave_common"><rect fill="#D6E9F8" height="43.2813" rx="2.5" ry="2.5" style="stroke:#181818;stroke-width:0.5;" width="258.2324" x="410.08" y="420.12"/><text fill="#000000" font-family="sans-serif" font-size="20" lengthAdjust="spacing" textLength="238.2324" x="420.08" y="448.6845">libsgx-enclave-common</text></g><!--entity lib_launch--><g class="entity" data-entity="lib_launch" data-source-line="51" data-uid="ent0013" id="entity_lib_launch"><rect fill="#D6E9F8" height="43.2813" rx="2.5" ry="2.5" style="stroke:#181818;stroke-width:0.5;" width="152.8125" x="465.79" y="523.4"/><text fill="#000000" font-family="sans-serif" font-size="20" lengthAdjust="spacing" textLength="132.8125" x="475.79" y="551.9645">libsgx-launch</text></g><!--entity lib_ra_uefi--><g class="entity" data-entity="lib_ra_uefi" data-source-line="52" data-uid="ent0014" id="entity_lib_ra_uefi"><rect fill="#D6E9F8" height="43.2813" rx="2.5" ry="2.5" style="stroke:#181818;stroke-width:0.5;" width="151.25" x="867.57" y="110.28"/><text fill="#000000" font-family="sans-serif" font-size="20" lengthAdjust="spacing" textLength="131.25" x="877.57" y="138.8445">libsgx-ra-uefi</text></g><!--entity lib_ra_network--><g class="entity" data-entity="lib_ra_network" data-source-line="53" data-uid="ent0015" id="entity_lib_ra_network"><rect fill="#D6E9F8" height="43.2813" rx="2.5" ry="2.5" style="stroke:#181818;stroke-width:0.5;" width="194.8926" x="920.75" y="213.56"/><text fill="#000000" font-family="sans-serif" font-size="20" lengthAdjust="spacing" textLength="174.8926" x="930.75" y="242.1245">libsgx-ra-network</text></g><!--entity libtdx_attest--><g class="entity" data-entity="libtdx_attest" data-source-line="54" data-uid="ent0016" id="entity_libtdx_attest"><rect fill="#D6E9F8" height="43.2813" rx="2.5" ry="2.5" style="stroke:#181818;stroke-width:0.5;" width="141.9043" x="16.24" y="110.28"/><text fill="#000000" font-family="sans-serif" font-size="20" lengthAdjust="spacing" textLength="121.9043" x="26.24" y="138.8445">libtdx-attest</text></g><!--entity libsgx_tdx_logic--><g class="entity" data-entity="libsgx_tdx_logic" data-source-line="55" data-uid="ent0017" id="entity_libsgx_tdx_logic"><rect fill="#D6E9F8" height="43.2813" rx="2.5" ry="2.5" style="stroke:#181818;stroke-width:0.5;" width="172.6074" x="275.89" y="110.28"/><text fill="#000000" font-family="sans-serif" font-size="20" lengthAdjust="spacing" textLength="152.6074" x="285.89" y="138.8445">libsgx-tdx-logic</text></g><!--entity plugin_launch--><g class="entity" data-entity="plugin_launch" data-source-line="58" data-uid="ent0018" id="entity_plugin_launch"><rect fill="#F7E7B2" height="43.2813" rx="2.5" ry="2.5" style="stroke:#181818;stroke-width:0.5;" width="283.5645" x="406.41" y="626.69"/><text fill="#000000" font-family="sans-serif" font-size="20" lengthAdjust="spacing" textLength="263.5645" x="416.41" y="655.2545">libsgx-aesm-launch-plugin</text></g><!--entity sgx_aesm_service--><g class="entity" data-entity="sgx_aesm_service" data-source-line="59" data-uid="ent0019" id="entity_sgx_aesm_service"><rect fill="#F7E7B2" height="43.2813" rx="2.5" ry="2.5" style="stroke:#181818;stroke-width:0.5;" width="195.4883" x="406.45" y="729.97"/><text fill="#000000" font-family="sans-serif" font-size="20" lengthAdjust="spacing" textLength="175.4883" x="416.45" y="758.5345">sgx-aesm-service</text></g><!--entity ae_pce--><g class="entity" data-entity="ae_pce" data-source-line="62" data-uid="ent0020" id="entity_ae_pce"><rect fill="#D2ECD2" height="43.2813" rx="2.5" ry="2.5" style="stroke:#181818;stroke-width:0.5;" width="153.75" x="731.32" y="833.25"/><text fill="#000000" font-family="sans-serif" font-size="20" lengthAdjust="spacing" textLength="133.75" x="741.32" y="861.8145">libsgx-ae-pce</text></g><!--entity ae_le--><g class="entity" data-entity="ae_le" data-source-line="63" data-uid="ent0021" id="entity_ae_le"><rect fill="#D2ECD2" height="43.2813" rx="2.5" ry="2.5" style="stroke:#181818;stroke-width:0.5;" width="135.6152" x="560.39" y="833.25"/><text fill="#000000" font-family="sans-serif" font-size="20" lengthAdjust="spacing" textLength="115.6152" x="570.39" y="861.8145">libsgx-ae-le</text></g><!--entity ae_id--><g class="entity" data-entity="ae_id" data-source-line="64" data-uid="ent0022" id="entity_ae_id"><rect fill="#D2ECD2" height="43.2813" rx="2.5" ry="2.5" style="stroke:#181818;stroke-width:0.5;" width="221.1523" x="106.62" y="833.25"/><text fill="#000000" font-family="sans-serif" font-size="20" lengthAdjust="spacing" textLength="201.1523" x="116.62" y="861.8145">libsgx-ae-id-enclave</text></g><!--entity lib_ae_tdqe--><g class="entity" data-entity="lib_ae_tdqe" data-source-line="65" data-uid="ent0023" id="entity_lib_ae_tdqe"><rect fill="#D2ECD2" height="43.2813" rx="2.5" ry="2.5" style="stroke:#181818;stroke-width:0.5;" width="163.291" x="362.55" y="833.25"/><text fill="#000000" font-family="sans-serif" font-size="20" lengthAdjust="spacing" textLength="143.291" x="372.55" y="861.8145">libsgx-ae-tdqe</text></g><!--link sgx_aesm_service to ae_le--><!--link sgx_aesm_service to ae_pce--><!--link sgx_aesm_service to lib_ae_tdqe--><!--link sgx_aesm_service to ae_id--><!--link ae_le to lib_dcap_default_qpl--><!--link ae_le to sgx_dcap_pccs--><!--link ae_le to lib_headers--><!--link lib_ra_uefi to lib_ra_network--><!--link lib_enclave_common to lib_launch--><g class="link" data-entity-1="lib_enclave_common" data-entity-2="lib_launch" data-source-line="79" data-uid="lnk32" id="link_lib_enclave_common_lib_launch"><path d="M542.2,463.67 C542.2,481.19 542.2,499.65 542.2,517.17" fill="none" id="lib_enclave_common-to-lib_launch" style="stroke:#181818;stroke-width:1;stroke-dasharray:7,7;"/><polygon fill="#181818" points="542.2,523.17,546.2,514.17,542.2,518.17,538.2,514.17,542.2,523.17" style="stroke:#181818;stroke-width:1;"/></g><!--link lib_launch to plugin_launch--><g class="link" data-entity-1="lib_launch" data-entity-2="plugin_launch" data-source-line="80" data-uid="lnk33" id="link_lib_launch_plugin_launch"><path d="M542.2,566.95 C542.2,584.47 542.2,602.94 542.2,620.45" fill="none" id="lib_launch-to-plugin_launch" style="stroke:#181818;stroke-width:1;stroke-dasharray:7,7;"/><polygon fill="#181818" points="542.2,626.45,546.2,617.45,542.2,621.45,538.2,617.45,542.2,626.45" style="stroke:#181818;stroke-width:1;"/></g><!--link sgx_pck_id_ret_tool to lib_urts--><g class="link" data-entity-1="sgx_pck_id_ret_tool" data-entity-2="lib_urts" data-source-line="81" data-uid="lnk34" id="link_sgx_pck_id_ret_tool_lib_urts"><path d="M796.73,50.45 C796.73,121.05 796.73,338.81 796.73,338.81 C796.73,338.81 681.56,338.81 604.17,338.81" fill="none" id="sgx_pck_id_ret_tool-to-lib_urts" style="stroke:#181818;stroke-width:1;stroke-dasharray:7,7;"/><polygon fill="#181818" points="598.17,338.81,607.17,342.81,603.17,338.81,607.17,334.81,598.17,338.81" style="stroke:#181818;stroke-width:1;"/></g><!--link sgx_pck_id_ret_tool to lib_ra_uefi--><g class="link" data-entity-1="sgx_pck_id_ret_tool" data-entity-2="lib_ra_uefi" data-source-line="82" data-uid="lnk35" id="link_sgx_pck_id_ret_tool_lib_ra_uefi"><path d="M901.71,50.54 C901.71,68.07 901.71,86.53 901.71,104.05" fill="none" id="sgx_pck_id_ret_tool-to-lib_ra_uefi" style="stroke:#181818;stroke-width:1;stroke-dasharray:7,7;"/><polygon fill="#181818" points="901.71,110.05,905.71,101.05,901.71,105.05,897.71,101.05,901.71,110.05" style="stroke:#181818;stroke-width:1;"/></g><!--link sgx_pck_id_ret_tool to ae_pce--><g class="link" data-entity-1="sgx_pck_id_ret_tool" data-entity-2="ae_pce" data-source-line="83" data-uid="lnk36" id="link_sgx_pck_id_ret_tool_ae_pce"><path d="M832.15,50.74 C832.15,168.02 832.15,710.6 832.15,827.1" fill="none" id="sgx_pck_id_ret_tool-to-ae_pce" style="stroke:#181818;stroke-width:1;stroke-dasharray:7,7;"/><polygon fill="#181818" points="832.15,833.1,836.15,824.1,832.15,828.1,828.15,824.1,832.15,833.1" style="stroke:#181818;stroke-width:1;"/></g><!--link sgx_pck_id_ret_tool to ae_id--><g class="link" data-entity-1="sgx_pck_id_ret_tool" data-entity-2="ae_id" data-source-line="84" data-uid="lnk37" id="link_sgx_pck_id_ret_tool_ae_id"><path d="M718.92,50.54 C718.92,93.31 718.92,183.81 718.92,183.81 C718.92,183.81 301.83,183.81 301.83,183.81 C301.83,183.81 301.83,711.29 301.83,826.94" fill="none" id="sgx_pck_id_ret_tool-to-ae_id" style="stroke:#181818;stroke-width:1;stroke-dasharray:7,7;"/><polygon fill="#181818" points="301.83,832.94,305.83,823.94,301.83,827.94,297.83,823.94,301.83,832.94" style="stroke:#181818;stroke-width:1;"/></g><!--link tdx_app to libtdx_attest--><g class="link" data-entity-1="tdx_app" data-entity-2="libtdx_attest" data-source-line="87" data-uid="lnk38" id="link_tdx_app_libtdx_attest"><path d="M87.2,50.54 C87.2,68.07 87.2,86.53 87.2,104.05" fill="none" id="tdx_app-to-libtdx_attest" style="stroke:#181818;stroke-width:1;"/><polygon fill="#181818" points="87.2,110.05,91.2,101.05,87.2,105.05,83.2,101.05,87.2,110.05" style="stroke:#181818;stroke-width:1;"/></g><!--link lib_pce_logic to lib_urts--><g class="link" data-entity-1="lib_pce_logic" data-entity-2="lib_urts" data-source-line="88" data-uid="lnk39" id="link_lib_pce_logic_lib_urts"><path d="M591.42,257.1 C591.42,274.63 591.42,293.09 591.42,310.61" fill="none" id="lib_pce_logic-to-lib_urts" style="stroke:#181818;stroke-width:1;"/><polygon fill="#181818" points="591.42,316.61,595.42,307.61,591.42,311.61,587.42,307.61,591.42,316.61" style="stroke:#181818;stroke-width:1;"/></g><!--link lib_pce_logic to ae_pce--><g class="link" data-entity-1="lib_pce_logic" data-entity-2="ae_pce" data-source-line="89" data-uid="lnk40" id="link_lib_pce_logic_ae_pce"><path d="M751.31,257.26 C751.31,353.52 751.31,730.39 751.31,826.77" fill="none" id="lib_pce_logic-to-ae_pce" style="stroke:#181818;stroke-width:1;"/><polygon fill="#181818" points="751.31,832.77,755.31,823.77,751.31,827.77,747.31,823.77,751.31,832.77" style="stroke:#181818;stroke-width:1;"/></g><!--link lib_urts to lib_enclave_common--><g class="link" data-entity-1="lib_urts" data-entity-2="lib_enclave_common" data-source-line="90" data-uid="lnk41" id="link_lib_urts_lib_enclave_common"><path d="M535.2,360.39 C535.2,377.91 535.2,396.37 535.2,413.89" fill="none" id="lib_urts-to-lib_enclave_common" style="stroke:#181818;stroke-width:1;"/><polygon fill="#181818" points="535.2,419.89,539.2,410.89,535.2,414.89,531.2,410.89,535.2,419.89" style="stroke:#181818;stroke-width:1;"/></g><!--link plugin_launch to sgx_aesm_service--><g class="link" data-entity-1="plugin_launch" data-entity-2="sgx_aesm_service" data-source-line="91" data-uid="lnk42" id="link_plugin_launch_sgx_aesm_service"><path d="M504.2,670.23 C504.2,687.76 504.2,706.22 504.2,723.74" fill="none" id="plugin_launch-to-sgx_aesm_service" style="stroke:#181818;stroke-width:1;"/><polygon fill="#181818" points="504.2,729.74,508.2,720.74,504.2,724.74,500.2,720.74,504.2,729.74" style="stroke:#181818;stroke-width:1;"/></g><!--link plugin_launch to ae_le--><g class="link" data-entity-1="plugin_launch" data-entity-2="ae_le" data-source-line="92" data-uid="lnk43" id="link_plugin_launch_ae_le"><path d="M645.96,670.43 C645.96,710.19 645.96,787.3 645.96,826.94" fill="none" id="plugin_launch-to-ae_le" style="stroke:#181818;stroke-width:1;"/><polygon fill="#181818" points="645.96,832.94,649.96,823.94,645.96,827.94,641.96,823.94,645.96,832.94" style="stroke:#181818;stroke-width:1;"/></g><!--link sgx_ra_service to lib_ra_uefi--><g class="link" data-entity-1="sgx_ra_service" data-entity-2="lib_ra_uefi" data-source-line="93" data-uid="lnk44" id="link_sgx_ra_service_lib_ra_uefi"><path d="M994.63,50.54 C994.63,68.07 994.63,86.53 994.63,104.05" fill="none" id="sgx_ra_service-to-lib_ra_uefi" style="stroke:#181818;stroke-width:1;"/><polygon fill="#181818" points="994.63,110.05,998.63,101.05,994.63,105.05,990.63,101.05,994.63,110.05" style="stroke:#181818;stroke-width:1;"/></g><!--link sgx_ra_service to lib_ra_network--><g class="link" data-entity-1="sgx_ra_service" data-entity-2="lib_ra_network" data-source-line="94" data-uid="lnk45" id="link_sgx_ra_service_lib_ra_network"><path d="M1067.23,50.74 C1067.23,90.5 1067.23,167.61 1067.23,207.25" fill="none" id="sgx_ra_service-to-lib_ra_network" style="stroke:#181818;stroke-width:1;"/><polygon fill="#181818" points="1067.23,213.25,1071.23,204.25,1067.23,208.25,1063.23,204.25,1067.23,213.25" style="stroke:#181818;stroke-width:1;"/></g><!--link tdx_qgs to libsgx_tdx_logic--><g class="link" data-entity-1="tdx_qgs" data-entity-2="libsgx_tdx_logic" data-source-line="95" data-uid="lnk46" id="link_tdx_qgs_libsgx_tdx_logic"><path d="M362.2,50.54 C362.2,68.07 362.2,86.53 362.2,104.05" fill="none" id="tdx_qgs-to-libsgx_tdx_logic" style="stroke:#181818;stroke-width:1;"/><polygon fill="#181818" points="362.2,110.05,366.2,101.05,362.2,105.05,358.2,101.05,362.2,110.05" style="stroke:#181818;stroke-width:1;"/></g><!--link libsgx_tdx_logic to lib_ae_tdqe--><g class="link" data-entity-1="libsgx_tdx_logic" data-entity-2="lib_ae_tdqe" data-source-line="96" data-uid="lnk47" id="link_libsgx_tdx_logic_lib_ae_tdqe"><path d="M384.48,153.95 C384.48,261.03 384.48,720.33 384.48,827.03" fill="none" id="libsgx_tdx_logic-to-lib_ae_tdqe" style="stroke:#181818;stroke-width:1;"/><polygon fill="#181818" points="384.48,833.03,388.48,824.03,384.48,828.03,380.48,824.03,384.48,833.03" style="stroke:#181818;stroke-width:1;"/></g><!--link libsgx_tdx_logic to lib_pce_logic--><g class="link" data-entity-1="libsgx_tdx_logic" data-entity-2="lib_pce_logic" data-source-line="97" data-uid="lnk48" id="link_libsgx_tdx_logic_lib_pce_logic"><path d="M435.69,153.95 C435.69,184.45 435.69,235.81 435.69,235.81 C435.69,235.81 511.23,235.81 578.76,235.81" fill="none" id="libsgx_tdx_logic-to-lib_pce_logic" style="stroke:#181818;stroke-width:1;"/><polygon fill="#181818" points="584.76,235.81,575.76,231.81,579.76,235.81,575.76,239.81,584.76,235.81" style="stroke:#181818;stroke-width:1;"/></g><!--link libsgx_tdx_logic to ae_id--><g class="link" data-entity-1="libsgx_tdx_logic" data-entity-2="ae_id" data-source-line="98" data-uid="lnk49" id="link_libsgx_tdx_logic_ae_id"><path d="M288.86,153.95 C288.86,261.03 288.86,720.33 288.86,827.03" fill="none" id="libsgx_tdx_logic-to-ae_id" style="stroke:#181818;stroke-width:1;"/><polygon fill="#181818" points="288.86,833.03,292.86,824.03,288.86,828.03,284.86,824.03,288.86,833.03" style="stroke:#181818;stroke-width:1;"/></g><!--link libsgx_tdx_logic to lib_urts--><g class="link" data-entity-1="libsgx_tdx_logic" data-entity-2="lib_urts" data-source-line="99" data-uid="lnk50" id="link_libsgx_tdx_logic_lib_urts"><path d="M422.89,153.67 C422.89,206.79 422.89,338.81 422.89,338.81 C422.89,338.81 440.55,338.81 466.15,338.81" fill="none" id="libsgx_tdx_logic-to-lib_urts" style="stroke:#181818;stroke-width:1;"/><polygon fill="#181818" points="472.15,338.81,463.15,334.81,467.15,338.81,463.15,342.81,472.15,338.81" style="stroke:#181818;stroke-width:1;"/></g><g class="legend" data-source-line="105"><rect fill="#FFFFFF" height="147.8672" rx="7.5" ry="7.5" style="stroke:#000000;stroke-width:1;" width="916.0254" x="103.9593" y="996.8113"/><text fill="#000000" font-family="sans-serif" font-size="20" lengthAdjust="spacing" textLength="6.3574" x="108.9593" y="1020.3757">&#160;</text><rect fill="#FFFFFF" height="23.2813" style="stroke:none;stroke-width:1;" width="906.0254" x="108.9593" y="1027.0925"/><rect fill="#EEEEEE" height="23.2813" style="stroke:none;stroke-width:1;" width="52.4414" x="108.9593" y="1027.0925"/><text fill="#000000" font-family="sans-serif" font-size="20" lengthAdjust="spacing" textLength="19.0723" x="108.9593" y="1045.657">&#160;&#160;&#160;</text><text fill="#000000" font-family="sans-serif" font-size="20" lengthAdjust="spacing" textLength="235.3711" x="167.7581" y="1045.657">Top-level tools/services</text><rect fill="#FFBA53" height="23.2813" style="stroke:none;stroke-width:1;" width="52.4414" x="409.4866" y="1027.0925"/><text fill="#000000" font-family="sans-serif" font-size="20" lengthAdjust="spacing" textLength="19.0723" x="409.4866" y="1045.657">&#160;&#160;&#160;</text><text fill="#000000" font-family="sans-serif" font-size="20" lengthAdjust="spacing" textLength="160" x="468.2854" y="1045.657">SGX Application</text><rect fill="#D6E9F8" height="23.2813" style="stroke:none;stroke-width:1;" width="52.4414" x="748.9007" y="1027.0925"/><text fill="#000000" font-family="sans-serif" font-size="20" lengthAdjust="spacing" textLength="19.0723" x="748.9007" y="1045.657">&#160;&#160;&#160;</text><text fill="#000000" font-family="sans-serif" font-size="20" lengthAdjust="spacing" textLength="200.9277" x="807.6995" y="1045.657">Core DCAP Libraries</text><rect fill="#FFFFFF" height="23.2813" style="stroke:none;stroke-width:1;" width="906.0254" x="108.9593" y="1050.3738"/><rect fill="#F7E7B2" height="23.2813" style="stroke:none;stroke-width:1;" width="52.4414" x="108.9593" y="1050.3738"/><text fill="#000000" font-family="sans-serif" font-size="20" lengthAdjust="spacing" textLength="19.0723" x="108.9593" y="1068.9382">&#160;&#160;&#160;</text><text fill="#000000" font-family="sans-serif" font-size="20" lengthAdjust="spacing" textLength="134.2676" x="167.7581" y="1068.9382">AESM Plugins</text><rect fill="#D2ECD2" height="23.2813" style="stroke:none;stroke-width:1;" width="52.4414" x="409.4866" y="1050.3738"/><text fill="#000000" font-family="sans-serif" font-size="20" lengthAdjust="spacing" textLength="19.0723" x="409.4866" y="1068.9382">&#160;&#160;&#160;</text><text fill="#000000" font-family="sans-serif" font-size="20" lengthAdjust="spacing" textLength="125.4102" x="468.2854" y="1068.9382">AE  Libraries</text><rect fill="#FFFFFF" height="64.0234" style="stroke:none;stroke-width:1;" width="906.0254" x="108.9593" y="1073.655"/><text fill="#000000" font-family="sans-serif" font-size="55" lengthAdjust="spacing" textLength="46.084" x="108.9593" y="1124.7072">&#8594;</text><text fill="#000000" font-family="sans-serif" font-size="20" lengthAdjust="spacing" textLength="6.3574" x="155.0432" y="1132.9616">&#160;</text><text fill="#000000" font-family="sans-serif" font-size="20" lengthAdjust="spacing" textLength="6.3574" x="161.4007" y="1092.2195">&#160;</text><text fill="#000000" font-family="sans-serif" font-size="20" lengthAdjust="spacing" textLength="177.7539" x="161.4007" y="1115.5007">Hard dependency</text><text fill="#000000" font-family="sans-serif" font-size="55" lengthAdjust="spacing" textLength="46.084" x="409.4866" y="1124.7072">&#8674;</text><text fill="#000000" font-family="sans-serif" font-size="20" lengthAdjust="spacing" textLength="6.3574" x="455.5706" y="1132.9616">&#160;</text><text fill="#000000" font-family="sans-serif" font-size="20" lengthAdjust="spacing" textLength="6.3574" x="461.928" y="1092.2195">&#160;</text><text fill="#000000" font-family="sans-serif" font-size="20" lengthAdjust="spacing" textLength="280.6152" x="461.928" y="1115.5007">Recommended dependency</text><text fill="#000000" font-family="sans-serif" font-size="55" lengthAdjust="spacing" textLength="46.084" x="748.9007" y="1124.7072">&#10513;</text><text fill="#000000" font-family="sans-serif" font-size="20" lengthAdjust="spacing" textLength="6.3574" x="794.9846" y="1132.9616">&#160;</text><text fill="#000000" font-family="sans-serif" font-size="20" lengthAdjust="spacing" textLength="6.3574" x="801.3421" y="1092.2195">&#160;</text><text fill="#000000" font-family="sans-serif" font-size="20" lengthAdjust="spacing" textLength="151.2695" x="801.3421" y="1115.5007">Optional usage</text><line style="stroke:#FFFFFF;stroke-width:1;" x1="108.9593" x2="1014.9846" y1="1027.0925" y2="1027.0925"/><line style="stroke:#FFFFFF;stroke-width:1;" x1="108.9593" x2="1014.9846" y1="1050.3738" y2="1050.3738"/><line style="stroke:#FFFFFF;stroke-width:1;" x1="108.9593" x2="1014.9846" y1="1073.655" y2="1073.655"/><line style="stroke:#FFFFFF;stroke-width:1;" x1="108.9593" x2="1014.9846" y1="1137.6784" y2="1137.6784"/><line style="stroke:#FFFFFF;stroke-width:1;" x1="108.9593" x2="108.9593" y1="1027.0925" y2="1137.6784"/><line style="stroke:#FFFFFF;stroke-width:1;" x1="161.4007" x2="161.4007" y1="1027.0925" y2="1137.6784"/><line style="stroke:#FFFFFF;stroke-width:1;" x1="409.4866" x2="409.4866" y1="1027.0925" y2="1137.6784"/><line style="stroke:#FFFFFF;stroke-width:1;" x1="461.928" x2="461.928" y1="1027.0925" y2="1137.6784"/><line style="stroke:#FFFFFF;stroke-width:1;" x1="748.9007" x2="748.9007" y1="1027.0925" y2="1137.6784"/><line style="stroke:#FFFFFF;stroke-width:1;" x1="801.3421" x2="801.3421" y1="1027.0925" y2="1137.6784"/><line style="stroke:#FFFFFF;stroke-width:1;" x1="1014.9846" x2="1014.9846" y1="1027.0925" y2="1137.6784"/></g><!--SRC=[bLRRRjms47tdLn3fGnuQ9VKMRkfYBS2NTVlWe46S0WNQGk2AirhMMb8ckOxTEl_UuKLQIdjJzsMbcJc7m-7mQ9Q20pKMD2Zxt00nzq8sJBCLdRFolj9gBVcLgfMcLZDfq0NI9b6raE20L6cxL8d3B1bNNuIiw8BL1iXhUdv-JgzXWG1wPvzhCCv2fiOzvyJofukcyGxwBw7uknmayCrYCMUdtoyMmQiq1nqybpM6UkkDalPE_0DqyXtvIgngFYjL7oIT-Tzeob9fk1NpWvJNFypERduSJSd0h3xMwqh8WwmtxsVlBoV_W_LecfFPrVLumkcxU5BnA3-hXjwoPz3-6Asgm2xnnIsceRHCLhZqArCzPPfb1lIZAE4LPOQYgT2iY2OwdQR7bETzl0N8MDDe9WohCujXdWFDHMSkdFaO3t_A7YeJmFofmESZ29TvKzvdWcSQh1Rmc2RWDe7UGl02lNiomAeDKgZMOApRK9S8FZlWfllphi9Ns6iKJr4pNDqanKv8Qp5tYVAIDHc71LlNDdjeGexeAvoZY8u27RXMsiAus63BdgafIzDjqrCuoq5iJ6G933l9TEl7zp7GfeIiLfKeEp1Q2cyP0rzhkrdMlOm1WInhzWXPgLOh9JjuD1V1F8QePcjPBZk2y3e6Y9TZZQBO8V5ckFUHK1JVBqhVf-XeEaRWkf5PY-tOWdqtUikOnHs-TrgkLHp5dWEBFNqnk_j0WzeTxcYdYh6gMUFZ_KBXSLFVWNXkzxFd6SgFCoO2j4tIPJlo_Z5mxUlv6RY-zQm72uYGkaFKum2eHR4rMw3Weu2MFq3N90XpxqDWfpfI8eLGCdoWNzDV1ESWtz2_rzWQ2_n4-0y1sIfablsnzA5_vM5FHqEmK8TZadIFaWbEGYM714CDt17MqxazD57AI7fBXp6R- -VA-GcSW83am2c7nZt84bk9xD2Ojs_pH3b88YBEqsjxiklZq-ATyXqCYAdlZKcEPOyR2-swWkd1hjhFMPRbVJqXVJ6F_f3gjYicqCbu6zul6EahWGiQDiYEa4rR9XD8kq1QcTtkzcpR2IAwUj97jhIm9MWRUMz0LuVT8Q7qUz6-dF4ItqA5v-BlRpAhU-FsOEb_Mt7fz4U2YSwLjMf5o3I2tiJ__6KQ1-aSvyONDnkYk3r2JLtVc7Unb0PTqswC3w5tF_zESVIfHScSvb1a2lDpSFiPwFhgucCYn2yxrm_pSK3rlZ9kpJ3hjavwZCpWldywFSsdltqxEJcRv3ZxeYL7y9-ot_VFT10zwqVlb80XwEpaf0VwjN6bO3LT6rO1feYmS0B_0G00]--></g></svg>