<svg xmlns="http://www.w3.org/2000/svg" xmlns:xlink="http://www.w3.org/1999/xlink" contentStyleType="text/css" data-diagram-type="DESCRIPTION" height="1474px" preserveAspectRatio="none" style="width:1303px;height:1474px;" version="1.1" viewBox="0 0 1303 1474" width="1303px" zoomAndPan="magnify"><defs/><g><!--entity tee_appraisal_tool--><g class="entity" data-entity="tee_appraisal_tool" data-source-line="36" data-uid="ent0002" id="entity_tee_appraisal_tool"><rect fill="#EEEEEE" height="43.2813" rx="2.5" ry="2.5" style="stroke:#181818;stroke-width:0.5;" width="196.6699" x="355.41" y="7"/><text fill="#000000" font-family="sans-serif" font-size="20" lengthAdjust="spacing" textLength="176.6699" x="365.41" y="35.5645">tee-appraisal-tool</text></g><!--entity sgx_ra_service--><g class="entity" data-entity="sgx_ra_service" data-source-line="37" data-uid="ent0003" id="entity_sgx_ra_service"><rect fill="#EEEEEE" height="43.2813" rx="2.5" ry="2.5" style="stroke:#181818;stroke-width:0.5;" width="161.5039" x="721.99" y="7"/><text fill="#000000" font-family="sans-serif" font-size="20" lengthAdjust="spacing" textLength="141.5039" x="731.99" y="35.5645">sgx-ra-service</text></g><!--entity sgx_pck_id_ret_tool--><g class="entity" data-entity="sgx_pck_id_ret_tool" data-source-line="38" data-uid="ent0004" id="entity_sgx_pck_id_ret_tool"><rect fill="#EEEEEE" height="43.2813" rx="2.5" ry="2.5" style="stroke:#181818;stroke-width:0.5;" width="259.3164" x="918.09" y="7"/><text fill="#000000" font-family="sans-serif" font-size="20" lengthAdjust="spacing" textLength="239.3164" x="928.09" y="35.5645">sgx-pck-id-retrieval-tool</text></g><!--entity sgx_app--><g class="entity" data-entity="sgx_app" data-source-line="39" data-uid="ent0005" id="entity_sgx_app"><rect fill="#FFBA53" height="43.2813" rx="2.5" ry="2.5" style="stroke:#181818;stroke-width:0.5;" width="99.8145" x="586.84" y="7"/><text fill="#000000" font-family="sans-serif" font-size="20" lengthAdjust="spacing" textLength="79.8145" x="596.84" y="35.5645">sgx-app</text></g><!--entity lib_dcap_default_qpl--><g class="entity" data-entity="lib_dcap_default_qpl" data-source-line="43" data-uid="ent0006" id="entity_lib_dcap_default_qpl"><rect fill="#D6E9F8" height="43.2813" rx="2.5" ry="2.5" style="stroke:#181818;stroke-width:0.5;" width="250.3711" x="235.56" y="1246.38"/><text fill="#000000" font-family="sans-serif" font-size="20" lengthAdjust="spacing" textLength="230.3711" x="245.56" y="1274.9445">libsgx-dcap-default-qpl</text></g><!--entity sgx_dcap_pccs--><g class="entity" data-entity="sgx_dcap_pccs" data-source-line="44" data-uid="ent0007" id="entity_sgx_dcap_pccs"><rect fill="#D6E9F8" height="43.2813" rx="2.5" ry="2.5" style="stroke:#181818;stroke-width:0.5;" width="163.1348" x="521.18" y="1246.38"/><text fill="#000000" font-family="sans-serif" font-size="20" lengthAdjust="spacing" textLength="143.1348" x="531.18" y="1274.9445">sgx-dcap-pccs</text></g><!--entity lib_headers--><g class="entity" data-entity="lib_headers" data-source-line="45" data-uid="ent0008" id="entity_lib_headers"><rect fill="#D6E9F8" height="43.2813" rx="2.5" ry="2.5" style="stroke:#181818;stroke-width:0.5;" width="166.8555" x="719.32" y="1246.38"/><text fill="#000000" font-family="sans-serif" font-size="20" lengthAdjust="spacing" textLength="146.8555" x="729.32" y="1274.9445">libsgx-headers</text></g><!--entity lib_uae_service--><g class="entity" data-entity="lib_uae_service" data-source-line="47" data-uid="ent0009" id="entity_lib_uae_service"><rect fill="#D6E9F8" height="43.2813" rx="2.5" ry="2.5" style="stroke:#181818;stroke-width:0.5;" width="202.0703" x="172.71" y="110.29"/><text fill="#000000" font-family="sans-serif" font-size="20" lengthAdjust="spacing" textLength="182.0703" x="182.71" y="138.8545">libsgx-uae-service</text></g><!--entity lib_dcap_ql--><g class="entity" data-entity="lib_dcap_ql" data-source-line="48" data-uid="ent0010" id="entity_lib_dcap_ql"><rect fill="#D6E9F8" height="43.2813" rx="2.5" ry="2.5" style="stroke:#181818;stroke-width:0.5;" width="160.0879" x="409.7" y="110.29"/><text fill="#000000" font-family="sans-serif" font-size="20" lengthAdjust="spacing" textLength="140.0879" x="419.7" y="138.8545">libsgx-dcap-ql</text></g><!--entity lib_quote_ex--><g class="entity" data-entity="lib_quote_ex" data-source-line="49" data-uid="ent0011" id="entity_lib_quote_ex"><rect fill="#D6E9F8" height="43.2813" rx="2.5" ry="2.5" style="stroke:#181818;stroke-width:0.5;" width="175.0879" x="96.2" y="213.57"/><text fill="#000000" font-family="sans-serif" font-size="20" lengthAdjust="spacing" textLength="155.0879" x="106.2" y="242.1345">libsgx-quote-ex</text></g><!--entity lib_dcap_quote_verify--><g class="entity" data-entity="lib_dcap_quote_verify" data-source-line="50" data-uid="ent0012" id="entity_lib_dcap_quote_verify"><rect fill="#D6E9F8" height="43.2813" rx="2.5" ry="2.5" style="stroke:#181818;stroke-width:0.5;" width="263.6035" x="305.94" y="213.57"/><text fill="#000000" font-family="sans-serif" font-size="20" lengthAdjust="spacing" textLength="243.6035" x="315.94" y="242.1345">libsgx-dcap-quote-verify</text></g><!--entity lib_pce_logic--><g class="entity" data-entity="lib_pce_logic" data-source-line="52" data-uid="ent0013" id="entity_lib_pce_logic"><rect fill="#D6E9F8" height="43.2813" rx="2.5" ry="2.5" style="stroke:#181818;stroke-width:0.5;" width="176.2305" x="464.63" y="626.69"/><text fill="#000000" font-family="sans-serif" font-size="20" lengthAdjust="spacing" textLength="156.2305" x="474.63" y="655.2545">libsgx-pce-logic</text></g><!--entity lib_qe3_logic--><g class="entity" data-entity="lib_qe3_logic" data-source-line="53" data-uid="ent0014" id="entity_lib_qe3_logic"><rect fill="#D6E9F8" height="43.2813" rx="2.5" ry="2.5" style="stroke:#181818;stroke-width:0.5;" width="177.959" x="888.76" y="626.69"/><text fill="#000000" font-family="sans-serif" font-size="20" lengthAdjust="spacing" textLength="157.959" x="898.76" y="655.2545">libsgx-qe3-logic</text></g><!--entity lib_urts--><g class="entity" data-entity="lib_urts" data-source-line="54" data-uid="ent0015" id="entity_lib_urts"><rect fill="#D6E9F8" height="43.2813" rx="2.5" ry="2.5" style="stroke:#181818;stroke-width:0.5;" width="163.2813" x="683.1" y="729.97"/><text fill="#000000" font-family="sans-serif" font-size="20" lengthAdjust="spacing" textLength="105.1367" x="712.1723" y="758.5345">libsgx-urts</text></g><!--entity lib_enclave_common--><g class="entity" data-entity="lib_enclave_common" data-source-line="55" data-uid="ent0016" id="entity_lib_enclave_common"><rect fill="#D6E9F8" height="43.2813" rx="2.5" ry="2.5" style="stroke:#181818;stroke-width:0.5;" width="258.2324" x="635.63" y="833.25"/><text fill="#000000" font-family="sans-serif" font-size="20" lengthAdjust="spacing" textLength="238.2324" x="645.63" y="861.8145">libsgx-enclave-common</text></g><!--entity lib_launch--><g class="entity" data-entity="lib_launch" data-source-line="56" data-uid="ent0017" id="entity_lib_launch"><rect fill="#D6E9F8" height="43.2813" rx="2.5" ry="2.5" style="stroke:#181818;stroke-width:0.5;" width="152.8125" x="688.34" y="936.54"/><text fill="#000000" font-family="sans-serif" font-size="20" lengthAdjust="spacing" textLength="132.8125" x="698.34" y="965.1045">libsgx-launch</text></g><!--entity lib_ra_uefi--><g class="entity" data-entity="lib_ra_uefi" data-source-line="58" data-uid="ent0018" id="entity_lib_ra_uefi"><rect fill="#D6E9F8" height="43.2813" rx="2.5" ry="2.5" style="stroke:#181818;stroke-width:0.5;" width="151.25" x="981.12" y="110.29"/><text fill="#000000" font-family="sans-serif" font-size="20" lengthAdjust="spacing" textLength="131.25" x="991.12" y="138.8545">libsgx-ra-uefi</text></g><!--entity lib_ra_network--><g class="entity" data-entity="lib_ra_network" data-source-line="59" data-uid="ent0019" id="entity_lib_ra_network"><rect fill="#D6E9F8" height="43.2813" rx="2.5" ry="2.5" style="stroke:#181818;stroke-width:0.5;" width="194.8926" x="751.3" y="110.29"/><text fill="#000000" font-family="sans-serif" font-size="20" lengthAdjust="spacing" textLength="174.8926" x="761.3" y="138.8545">libsgx-ra-network</text></g><!--entity plugin_quote_ex--><g class="entity" data-entity="plugin_quote_ex" data-source-line="63" data-uid="ent0020" id="entity_plugin_quote_ex"><rect fill="#F7E7B2" height="43.2813" rx="2.5" ry="2.5" style="stroke:#181818;stroke-width:0.5;" width="305.8398" x="30.82" y="316.85"/><text fill="#000000" font-family="sans-serif" font-size="20" lengthAdjust="spacing" textLength="285.8398" x="40.82" y="345.4145">libsgx-aesm-quote-ex-plugin</text></g><!--entity plugin_ecdsa--><g class="entity" data-entity="plugin_ecdsa" data-source-line="64" data-uid="ent0021" id="entity_plugin_ecdsa"><rect fill="#F7E7B2" height="43.2813" rx="2.5" ry="2.5" style="stroke:#181818;stroke-width:0.5;" width="275.4004" x="54.04" y="420.13"/><text fill="#000000" font-family="sans-serif" font-size="20" lengthAdjust="spacing" textLength="255.4004" x="64.04" y="448.6945">libsgx-aesm-ecdsa-plugin</text></g><!--entity plugin_pce--><g class="entity" data-entity="plugin_pce" data-source-line="65" data-uid="ent0022" id="entity_plugin_pce"><rect fill="#F7E7B2" height="43.2813" rx="2.5" ry="2.5" style="stroke:#181818;stroke-width:0.5;" width="252.7246" x="124.38" y="523.41"/><text fill="#000000" font-family="sans-serif" font-size="20" lengthAdjust="spacing" textLength="232.7246" x="134.38" y="551.9745">libsgx-aesm-pce-plugin</text></g><!--entity plugin_launch--><g class="entity" data-entity="plugin_launch" data-source-line="66" data-uid="ent0023" id="entity_plugin_launch"><rect fill="#F7E7B2" height="43.2813" rx="2.5" ry="2.5" style="stroke:#181818;stroke-width:0.5;" width="283.5645" x="640.96" y="1039.82"/><text fill="#000000" font-family="sans-serif" font-size="20" lengthAdjust="spacing" textLength="263.5645" x="650.96" y="1068.3845">libsgx-aesm-launch-plugin</text></g><!--entity sgx_aesm_service--><g class="entity" data-entity="sgx_aesm_service" data-source-line="67" data-uid="ent0024" id="entity_sgx_aesm_service"><rect fill="#F7E7B2" height="43.2813" rx="2.5" ry="2.5" style="stroke:#181818;stroke-width:0.5;" width="195.4883" x="24" y="1143.1"/><text fill="#000000" font-family="sans-serif" font-size="20" lengthAdjust="spacing" textLength="175.4883" x="34" y="1171.6645">sgx-aesm-service</text></g><!--entity ae_pce--><g class="entity" data-entity="ae_pce" data-source-line="70" data-uid="ent0025" id="entity_ae_pce"><rect fill="#D2ECD2" height="43.2813" rx="2.5" ry="2.5" style="stroke:#181818;stroke-width:0.5;" width="153.75" x="336.87" y="1143.1"/><text fill="#000000" font-family="sans-serif" font-size="20" lengthAdjust="spacing" textLength="133.75" x="346.87" y="1171.6645">libsgx-ae-pce</text></g><!--entity ae_qe3--><g class="entity" data-entity="ae_qe3" data-source-line="71" data-uid="ent0026" id="entity_ae_qe3"><rect fill="#D2ECD2" height="43.2813" rx="2.5" ry="2.5" style="stroke:#181818;stroke-width:0.5;" width="155.4785" x="886" y="1143.1"/><text fill="#000000" font-family="sans-serif" font-size="20" lengthAdjust="spacing" textLength="135.4785" x="896" y="1171.6645">libsgx-ae-qe3</text></g><!--entity ae_le--><g class="entity" data-entity="ae_le" data-source-line="72" data-uid="ent0027" id="entity_ae_le"><rect fill="#D2ECD2" height="43.2813" rx="2.5" ry="2.5" style="stroke:#181818;stroke-width:0.5;" width="135.6152" x="714.94" y="1143.1"/><text fill="#000000" font-family="sans-serif" font-size="20" lengthAdjust="spacing" textLength="115.6152" x="724.94" y="1171.6645">libsgx-ae-le</text></g><!--entity ae_id_enclave--><g class="entity" data-entity="ae_id_enclave" data-source-line="73" data-uid="ent0028" id="entity_ae_id_enclave"><rect fill="#D2ECD2" height="43.2813" rx="2.5" ry="2.5" style="stroke:#181818;stroke-width:0.5;" width="221.1523" x="1076.17" y="1143.1"/><text fill="#000000" font-family="sans-serif" font-size="20" lengthAdjust="spacing" textLength="201.1523" x="1086.17" y="1171.6645">libsgx-ae-id-enclave</text></g><!--entity ae_qve--><g class="entity" data-entity="ae_qve" data-source-line="74" data-uid="ent0029" id="entity_ae_qve"><rect fill="#D2ECD2" height="43.2813" rx="2.5" ry="2.5" style="stroke:#181818;stroke-width:0.5;" width="154.5898" x="525.45" y="1143.1"/><text fill="#000000" font-family="sans-serif" font-size="20" lengthAdjust="spacing" textLength="134.5898" x="535.45" y="1171.6645">libsgx-ae-qve</text></g><!--link plugin_launch to ae_le--><!--link plugin_launch to ae_le--><g class="link" data-entity-1="plugin_launch" data-entity-2="ae_le" data-source-line="125" data-uid="lnk71" id="link_plugin_launch_ae_le"><path d="M805.35,1083.36 C805.35,1100.89 805.35,1119.35 805.35,1136.87" fill="none" id="plugin_launch-to-ae_le-1" style="stroke:#181818;stroke-width:1;"/><polygon fill="#181818" points="805.35,1142.87,809.35,1133.87,805.35,1137.87,801.35,1133.87,805.35,1142.87" style="stroke:#181818;stroke-width:1;"/></g><!--link plugin_launch to ae_qe3--><!--link plugin_launch to ae_qve--><!--link plugin_launch to ae_id_enclave--><!--link plugin_launch to ae_pce--><!--link ae_qve to lib_dcap_default_qpl--><!--link ae_qve to sgx_dcap_pccs--><!--link ae_qve to lib_headers--><!--link sgx_app to lib_dcap_ql--><g class="link" data-entity-1="sgx_app" data-entity-2="lib_dcap_ql" data-source-line="88" data-uid="lnk38" id="link_sgx_app_lib_dcap_ql"><path d="M586.6,28.66 C572.5,28.66 560.93,28.66 560.93,28.66 C560.93,28.66 560.93,73.71 560.93,104.03" fill="none" id="sgx_app-to-lib_dcap_ql" style="stroke:#181818;stroke-width:1;stroke-dasharray:1,3;"/><polygon fill="#181818" points="560.93,110.03,564.93,101.03,560.93,105.03,556.93,101.03,560.93,110.03" style="stroke:#181818;stroke-width:1;"/></g><!--link sgx_app to lib_quote_ex--><g class="link" data-entity-1="sgx_app" data-entity-2="lib_quote_ex" data-source-line="89" data-uid="lnk39" id="link_sgx_app_lib_quote_ex"><path d="M604.84,50.56 C604.84,95.44 604.84,193.66 604.84,193.66 C604.84,193.66 246.64,193.66 246.64,193.66 C246.64,193.66 246.64,197.41 246.64,207.46" fill="none" id="sgx_app-to-lib_quote_ex" style="stroke:#181818;stroke-width:1;stroke-dasharray:1,3;"/><polygon fill="#181818" points="246.64,213.46,250.64,204.46,246.64,208.46,242.64,204.46,246.64,213.46" style="stroke:#181818;stroke-width:1;"/></g><!--link sgx_app to lib_dcap_quote_verify--><g class="link" data-entity-1="sgx_app" data-entity-2="lib_dcap_quote_verify" data-source-line="90" data-uid="lnk40" id="link_sgx_app_lib_dcap_quote_verify"><path d="M622.85,50.43 C622.85,102.27 622.85,228.66 622.85,228.66 C622.85,228.66 605.72,228.66 575.81,228.66" fill="none" id="sgx_app-to-lib_dcap_quote_verify" style="stroke:#181818;stroke-width:1;stroke-dasharray:1,3;"/><polygon fill="#181818" points="569.81,228.66,578.81,232.66,574.81,228.66,578.81,224.66,569.81,228.66" style="stroke:#181818;stroke-width:1;"/></g><!--link lib_dcap_ql to lib_quote_ex--><g class="link" data-entity-1="lib_dcap_ql" data-entity-2="lib_quote_ex" data-source-line="93" data-uid="lnk41" id="link_lib_dcap_ql_lib_quote_ex"><path d="M462.98,153.77 C462.98,163.87 462.98,173.66 462.98,173.66 C462.98,173.66 222,173.66 222,173.66 C222,173.66 222,189.64 222,207.33" fill="none" id="lib_dcap_ql-to-lib_quote_ex" style="stroke:#181818;stroke-width:1;stroke-dasharray:7,7;"/><polygon fill="#181818" points="222,213.33,226,204.33,222,208.33,218,204.33,222,213.33" style="stroke:#181818;stroke-width:1;"/></g><!--link lib_dcap_ql to lib_dcap_quote_verify--><g class="link" data-entity-1="lib_dcap_ql" data-entity-2="lib_dcap_quote_verify" data-source-line="94" data-uid="lnk42" id="link_lib_dcap_ql_lib_dcap_quote_verify"><path d="M516.26,153.83 C516.26,171.36 516.26,189.82 516.26,207.34" fill="none" id="lib_dcap_ql-to-lib_dcap_quote_verify" style="stroke:#181818;stroke-width:1;stroke-dasharray:7,7;"/><polygon fill="#181818" points="516.26,213.34,520.26,204.34,516.26,208.34,512.26,204.34,516.26,213.34" style="stroke:#181818;stroke-width:1;"/></g><!--link lib_quote_ex to plugin_quote_ex--><g class="link" data-entity-1="lib_quote_ex" data-entity-2="plugin_quote_ex" data-source-line="95" data-uid="lnk43" id="link_lib_quote_ex_plugin_quote_ex"><path d="M183.74,257.11 C183.74,274.64 183.74,293.1 183.74,310.62" fill="none" id="lib_quote_ex-to-plugin_quote_ex" style="stroke:#181818;stroke-width:1;stroke-dasharray:7,7;"/><polygon fill="#181818" points="183.74,316.62,187.74,307.62,183.74,311.62,179.74,307.62,183.74,316.62" style="stroke:#181818;stroke-width:1;"/></g><!--link lib_enclave_common to lib_launch--><g class="link" data-entity-1="lib_enclave_common" data-entity-2="lib_launch" data-source-line="96" data-uid="lnk44" id="link_lib_enclave_common_lib_launch"><path d="M764.74,876.8 C764.74,894.32 764.74,912.79 764.74,930.3" fill="none" id="lib_enclave_common-to-lib_launch" style="stroke:#181818;stroke-width:1;stroke-dasharray:7,7;"/><polygon fill="#181818" points="764.74,936.3,768.74,927.3,764.74,931.3,760.74,927.3,764.74,936.3" style="stroke:#181818;stroke-width:1;"/></g><!--link lib_launch to plugin_launch--><g class="link" data-entity-1="lib_launch" data-entity-2="plugin_launch" data-source-line="97" data-uid="lnk45" id="link_lib_launch_plugin_launch"><path d="M764.74,980.08 C764.74,997.61 764.74,1016.07 764.74,1033.59" fill="none" id="lib_launch-to-plugin_launch" style="stroke:#181818;stroke-width:1;stroke-dasharray:7,7;"/><polygon fill="#181818" points="764.74,1039.59,768.74,1030.59,764.74,1034.59,760.74,1030.59,764.74,1039.59" style="stroke:#181818;stroke-width:1;"/></g><!--link lib_dcap_quote_verify to lib_urts--><g class="link" data-entity-1="lib_dcap_quote_verify" data-entity-2="lib_urts" data-source-line="98" data-uid="lnk46" id="link_lib_dcap_quote_verify_lib_urts"><path d="M569.86,242.66 C636.89,242.66 704.32,242.66 704.32,242.66 C704.32,242.66 704.32,626.33 704.32,723.74" fill="none" id="lib_dcap_quote_verify-to-lib_urts" style="stroke:#181818;stroke-width:1;stroke-dasharray:7,7;"/><polygon fill="#181818" points="704.32,729.74,708.32,720.74,704.32,724.74,700.32,720.74,704.32,729.74" style="stroke:#181818;stroke-width:1;"/></g><!--link lib_dcap_quote_verify to ae_qve--><g class="link" data-entity-1="lib_dcap_quote_verify" data-entity-2="ae_qve" data-source-line="99" data-uid="lnk47" id="link_lib_dcap_quote_verify_ae_qve"><path d="M435.45,257.34 C435.45,349.84 435.45,700.66 435.45,700.66 C435.45,700.66 580.54,700.66 580.54,700.66 C580.54,700.66 580.54,1044.44 580.54,1136.67" fill="none" id="lib_dcap_quote_verify-to-ae_qve" style="stroke:#181818;stroke-width:1;stroke-dasharray:7,7;"/><polygon fill="#181818" points="580.54,1142.67,584.54,1133.67,580.54,1137.67,576.54,1133.67,580.54,1142.67" style="stroke:#181818;stroke-width:1;"/></g><!--link sgx_pck_id_ret_tool to lib_urts--><g class="link" data-entity-1="sgx_pck_id_ret_tool" data-entity-2="lib_urts" data-source-line="100" data-uid="lnk48" id="link_sgx_pck_id_ret_tool_lib_urts"><path d="M1147.38,50.52 C1147.38,172.15 1147.38,759.66 1147.38,759.66 C1147.38,759.66 965.26,759.66 852.83,759.66" fill="none" id="sgx_pck_id_ret_tool-to-lib_urts" style="stroke:#181818;stroke-width:1;stroke-dasharray:7,7;"/><polygon fill="#181818" points="846.83,759.66,855.83,763.66,851.83,759.66,855.83,755.66,846.83,759.66" style="stroke:#181818;stroke-width:1;"/></g><!--link sgx_pck_id_ret_tool to lib_ra_uefi--><g class="link" data-entity-1="sgx_pck_id_ret_tool" data-entity-2="lib_ra_uefi" data-source-line="101" data-uid="lnk49" id="link_sgx_pck_id_ret_tool_lib_ra_uefi"><path d="M1081.95,50.55 C1081.95,68.08 1081.95,86.54 1081.95,104.05" fill="none" id="sgx_pck_id_ret_tool-to-lib_ra_uefi" style="stroke:#181818;stroke-width:1;stroke-dasharray:7,7;"/><polygon fill="#181818" points="1081.95,110.05,1085.95,101.05,1081.95,105.05,1077.95,101.05,1081.95,110.05" style="stroke:#181818;stroke-width:1;"/></g><!--link sgx_pck_id_ret_tool to ae_pce--><g class="link" data-entity-1="sgx_pck_id_ret_tool" data-entity-2="ae_pce" data-source-line="102" data-uid="lnk50" id="link_sgx_pck_id_ret_tool_ae_pce"><path d="M963.65,50.73 C963.65,113.37 963.65,287.66 963.65,287.66 C963.65,287.66 406.28,287.66 406.28,287.66 C406.28,287.66 406.28,1000.44 406.28,1136.62" fill="none" id="sgx_pck_id_ret_tool-to-ae_pce" style="stroke:#181818;stroke-width:1;stroke-dasharray:7,7;"/><polygon fill="#181818" points="406.28,1142.62,410.28,1133.62,406.28,1137.62,402.28,1133.62,406.28,1142.62" style="stroke:#181818;stroke-width:1;"/></g><!--link sgx_pck_id_ret_tool to ae_id_enclave--><g class="link" data-entity-1="sgx_pck_id_ret_tool" data-entity-2="ae_id_enclave" data-source-line="103" data-uid="lnk51" id="link_sgx_pck_id_ret_tool_ae_id_enclave"><path d="M1162.39,50.58 C1162.39,194.23 1162.39,993.34 1162.39,1136.85" fill="none" id="sgx_pck_id_ret_tool-to-ae_id_enclave" style="stroke:#181818;stroke-width:1;stroke-dasharray:7,7;"/><polygon fill="#181818" points="1162.39,1142.85,1166.39,1133.85,1162.39,1137.85,1158.39,1133.85,1162.39,1142.85" style="stroke:#181818;stroke-width:1;"/></g><!--link lib_dcap_ql to lib_pce_logic--><g class="link" data-entity-1="lib_dcap_ql" data-entity-2="lib_pce_logic" data-source-line="106" data-uid="lnk52" id="link_lib_dcap_ql_lib_pce_logic"><path d="M570.14,139.66 C575.2,139.66 578.31,139.66 578.31,139.66 C578.31,139.66 578.31,523.11 578.31,620.48" fill="none" id="lib_dcap_ql-to-lib_pce_logic" style="stroke:#181818;stroke-width:1;"/><polygon fill="#181818" points="578.31,626.48,582.31,617.48,578.31,621.48,574.31,617.48,578.31,626.48" style="stroke:#181818;stroke-width:1;"/></g><!--link lib_dcap_ql to lib_qe3_logic--><g class="link" data-entity-1="lib_dcap_ql" data-entity-2="lib_qe3_logic" data-source-line="107" data-uid="lnk53" id="link_lib_dcap_ql_lib_qe3_logic"><path d="M570.06,125.66 C614.97,125.66 661.98,125.66 661.98,125.66 C661.98,125.66 661.98,641.66 661.98,641.66 C661.98,641.66 789.15,641.66 882.53,641.66" fill="none" id="lib_dcap_ql-to-lib_qe3_logic" style="stroke:#181818;stroke-width:1;"/><polygon fill="#181818" points="888.53,641.66,879.53,637.66,883.53,641.66,879.53,645.66,888.53,641.66" style="stroke:#181818;stroke-width:1;"/></g><!--link sgx_app to lib_urts--><g class="link" data-entity-1="sgx_app" data-entity-2="lib_urts" data-source-line="108" data-uid="lnk54" id="link_sgx_app_lib_urts"><path d="M686.86,28.66 C701.26,28.66 713.16,28.66 713.16,28.66 C713.16,28.66 713.16,602.42 713.16,723.58" fill="none" id="sgx_app-to-lib_urts" style="stroke:#181818;stroke-width:1;"/><polygon fill="#181818" points="713.16,729.58,717.16,720.58,713.16,724.58,709.16,720.58,713.16,729.58" style="stroke:#181818;stroke-width:1;"/></g><!--link lib_pce_logic to lib_urts--><g class="link" data-entity-1="lib_pce_logic" data-entity-2="lib_urts" data-source-line="109" data-uid="lnk55" id="link_lib_pce_logic_lib_urts"><path d="M641.11,655.66 C670.32,655.66 695.49,655.66 695.49,655.66 C695.49,655.66 695.49,695.53 695.49,723.84" fill="none" id="lib_pce_logic-to-lib_urts" style="stroke:#181818;stroke-width:1;"/><polygon fill="#181818" points="695.49,729.84,699.49,720.84,695.49,724.84,691.49,720.84,695.49,729.84" style="stroke:#181818;stroke-width:1;"/></g><!--link lib_pce_logic to ae_pce--><g class="link" data-entity-1="lib_pce_logic" data-entity-2="ae_pce" data-source-line="110" data-uid="lnk56" id="link_lib_pce_logic_ae_pce"><path d="M473.29,670.19 C473.29,754.56 473.29,1052.49 473.29,1136.87" fill="none" id="lib_pce_logic-to-ae_pce" style="stroke:#181818;stroke-width:1;"/><polygon fill="#181818" points="473.29,1142.87,477.29,1133.87,473.29,1137.87,469.29,1133.87,473.29,1142.87" style="stroke:#181818;stroke-width:1;"/></g><!--link lib_qe3_logic to lib_urts--><g class="link" data-entity-1="lib_qe3_logic" data-entity-2="lib_urts" data-source-line="111" data-uid="lnk57" id="link_lib_qe3_logic_lib_urts"><path d="M909.19,670.19 C909.19,698.61 909.19,744.66 909.19,744.66 C909.19,744.66 885.28,744.66 852.68,744.66" fill="none" id="lib_qe3_logic-to-lib_urts" style="stroke:#181818;stroke-width:1;"/><polygon fill="#181818" points="846.68,744.66,855.68,748.66,851.68,744.66,855.68,740.66,846.68,744.66" style="stroke:#181818;stroke-width:1;"/></g><!--link lib_qe3_logic to ae_qe3--><g class="link" data-entity-1="lib_qe3_logic" data-entity-2="ae_qe3" data-source-line="112" data-uid="lnk58" id="link_lib_qe3_logic_ae_qe3"><path d="M983,670.19 C983,754.56 983,1052.49 983,1136.87" fill="none" id="lib_qe3_logic-to-ae_qe3" style="stroke:#181818;stroke-width:1;"/><polygon fill="#181818" points="983,1142.87,987,1133.87,983,1137.87,979,1133.87,983,1142.87" style="stroke:#181818;stroke-width:1;"/></g><!--link lib_qe3_logic to ae_id_enclave--><g class="link" data-entity-1="lib_qe3_logic" data-entity-2="ae_id_enclave" data-source-line="113" data-uid="lnk59" id="link_lib_qe3_logic_ae_id_enclave"><path d="M1054.1,670.23 C1054.1,768.7 1054.1,1165.66 1054.1,1165.66 C1054.1,1165.66 1056.79,1165.66 1069.71,1165.66" fill="none" id="lib_qe3_logic-to-ae_id_enclave" style="stroke:#181818;stroke-width:1;"/><polygon fill="#181818" points="1075.71,1165.66,1066.71,1161.66,1070.71,1165.66,1066.71,1169.66,1075.71,1165.66" style="stroke:#181818;stroke-width:1;"/></g><!--link lib_urts to lib_enclave_common--><g class="link" data-entity-1="lib_urts" data-entity-2="lib_enclave_common" data-source-line="114" data-uid="lnk60" id="link_lib_urts_lib_enclave_common"><path d="M764.74,773.52 C764.74,791.04 764.74,809.5 764.74,827.02" fill="none" id="lib_urts-to-lib_enclave_common" style="stroke:#181818;stroke-width:1;"/><polygon fill="#181818" points="764.74,833.02,768.74,824.02,764.74,828.02,760.74,824.02,764.74,833.02" style="stroke:#181818;stroke-width:1;"/></g><!--link lib_uae_service to lib_launch--><g class="link" data-entity-1="lib_uae_service" data-entity-2="lib_launch" data-source-line="115" data-uid="lnk61" id="link_lib_uae_service_lib_launch"><path d="M172.52,132.66 C96.7,132.66 6,132.66 6,132.66 C6,132.66 6,958.66 6,958.66 C6,958.66 489.52,958.66 682.17,958.66" fill="none" id="lib_uae_service-to-lib_launch" style="stroke:#181818;stroke-width:1;"/><polygon fill="#181818" points="688.17,958.66,679.17,954.66,683.17,958.66,679.17,962.66,688.17,958.66" style="stroke:#181818;stroke-width:1;"/></g><!--link lib_uae_service to lib_quote_ex--><g class="link" data-entity-1="lib_uae_service" data-entity-2="lib_quote_ex" data-source-line="116" data-uid="lnk62" id="link_lib_uae_service_lib_quote_ex"><path d="M197.35,153.83 C197.35,171.36 197.35,189.82 197.35,207.34" fill="none" id="lib_uae_service-to-lib_quote_ex" style="stroke:#181818;stroke-width:1;"/><polygon fill="#181818" points="197.35,213.34,201.35,204.34,197.35,208.34,193.35,204.34,197.35,213.34" style="stroke:#181818;stroke-width:1;"/></g><!--link plugin_quote_ex to plugin_ecdsa--><g class="link" data-entity-1="plugin_quote_ex" data-entity-2="plugin_ecdsa" data-source-line="117" data-uid="lnk63" id="link_plugin_quote_ex_plugin_ecdsa"><path d="M191.74,360.39 C191.74,377.92 191.74,396.38 191.74,413.9" fill="none" id="plugin_quote_ex-to-plugin_ecdsa" style="stroke:#181818;stroke-width:1;"/><polygon fill="#181818" points="191.74,419.9,195.74,410.9,191.74,414.9,187.74,410.9,191.74,419.9" style="stroke:#181818;stroke-width:1;"/></g><!--link plugin_quote_ex to sgx_aesm_service--><g class="link" data-entity-1="plugin_quote_ex" data-entity-2="sgx_aesm_service" data-source-line="118" data-uid="lnk64" id="link_plugin_quote_ex_sgx_aesm_service"><path d="M42.43,360.59 C42.43,477.87 42.43,1020.45 42.43,1136.95" fill="none" id="plugin_quote_ex-to-sgx_aesm_service" style="stroke:#181818;stroke-width:1;"/><polygon fill="#181818" points="42.43,1142.95,46.43,1133.95,42.43,1137.95,38.43,1133.95,42.43,1142.95" style="stroke:#181818;stroke-width:1;"/></g><!--link plugin_ecdsa to plugin_pce--><g class="link" data-entity-1="plugin_ecdsa" data-entity-2="plugin_pce" data-source-line="119" data-uid="lnk65" id="link_plugin_ecdsa_plugin_pce"><path d="M226.91,463.67 C226.91,481.2 226.91,499.66 226.91,517.18" fill="none" id="plugin_ecdsa-to-plugin_pce" style="stroke:#181818;stroke-width:1;"/><polygon fill="#181818" points="226.91,523.18,230.91,514.18,226.91,518.18,222.91,514.18,226.91,523.18" style="stroke:#181818;stroke-width:1;"/></g><!--link plugin_ecdsa to sgx_aesm_service--><g class="link" data-entity-1="plugin_ecdsa" data-entity-2="sgx_aesm_service" data-source-line="120" data-uid="lnk66" id="link_plugin_ecdsa_sgx_aesm_service"><path d="M89.21,463.8 C89.21,570.88 89.21,1030.18 89.21,1136.88" fill="none" id="plugin_ecdsa-to-sgx_aesm_service" style="stroke:#181818;stroke-width:1;"/><polygon fill="#181818" points="89.21,1142.88,93.21,1133.88,89.21,1137.88,85.21,1133.88,89.21,1142.88" style="stroke:#181818;stroke-width:1;"/></g><!--link plugin_pce to sgx_aesm_service--><g class="link" data-entity-1="plugin_pce" data-entity-2="sgx_aesm_service" data-source-line="121" data-uid="lnk67" id="link_plugin_pce_sgx_aesm_service"><path d="M156.08,567.11 C156.08,663.37 156.08,1040.24 156.08,1136.62" fill="none" id="plugin_pce-to-sgx_aesm_service" style="stroke:#181818;stroke-width:1;"/><polygon fill="#181818" points="156.08,1142.62,160.08,1133.62,156.08,1137.62,152.08,1133.62,156.08,1142.62" style="stroke:#181818;stroke-width:1;"/></g><!--link plugin_pce to lib_pce_logic--><g class="link" data-entity-1="plugin_pce" data-entity-2="lib_pce_logic" data-source-line="122" data-uid="lnk68" id="link_plugin_pce_lib_pce_logic"><path d="M363.69,567.02 C363.69,597.44 363.69,648.66 363.69,648.66 C363.69,648.66 409.11,648.66 458.31,648.66" fill="none" id="plugin_pce-to-lib_pce_logic" style="stroke:#181818;stroke-width:1;"/><polygon fill="#181818" points="464.31,648.66,455.31,644.66,459.31,648.66,455.31,652.66,464.31,648.66" style="stroke:#181818;stroke-width:1;"/></g><!--link plugin_pce to ae_pce--><g class="link" data-entity-1="plugin_pce" data-entity-2="ae_pce" data-source-line="123" data-uid="lnk69" id="link_plugin_pce_ae_pce"><path d="M350.28,567.11 C350.28,663.37 350.28,1040.24 350.28,1136.62" fill="none" id="plugin_pce-to-ae_pce" style="stroke:#181818;stroke-width:1;"/><polygon fill="#181818" points="350.28,1142.62,354.28,1133.62,350.28,1137.62,346.28,1133.62,350.28,1142.62" style="stroke:#181818;stroke-width:1;"/></g><!--link plugin_launch to sgx_aesm_service--><g class="link" data-entity-1="plugin_launch" data-entity-2="sgx_aesm_service" data-source-line="124" data-uid="lnk70" id="link_plugin_launch_sgx_aesm_service"><path d="M640.61,1054.66 C464.62,1054.66 187.79,1054.66 187.79,1054.66 C187.79,1054.66 187.79,1104.6 187.79,1136.73" fill="none" id="plugin_launch-to-sgx_aesm_service" style="stroke:#181818;stroke-width:1;"/><polygon fill="#181818" points="187.79,1142.73,191.79,1133.73,187.79,1137.73,183.79,1133.73,187.79,1142.73" style="stroke:#181818;stroke-width:1;"/></g><!--link sgx_ra_service to lib_ra_uefi--><g class="link" data-entity-1="sgx_ra_service" data-entity-2="lib_ra_uefi" data-source-line="126" data-uid="lnk72" id="link_sgx_ra_service_lib_ra_uefi"><path d="M839.43,50.7 C839.43,64.88 839.43,80.66 839.43,80.66 C839.43,80.66 1031.54,80.66 1031.54,80.66 C1031.54,80.66 1031.54,89.99 1031.54,103.89" fill="none" id="sgx_ra_service-to-lib_ra_uefi" style="stroke:#181818;stroke-width:1;"/><polygon fill="#181818" points="1031.54,109.89,1035.54,100.89,1031.54,104.89,1027.54,100.89,1031.54,109.89" style="stroke:#181818;stroke-width:1;"/></g><!--link sgx_ra_service to lib_ra_network--><g class="link" data-entity-1="sgx_ra_service" data-entity-2="lib_ra_network" data-source-line="127" data-uid="lnk73" id="link_sgx_ra_service_lib_ra_network"><path d="M795.36,50.55 C795.36,68.08 795.36,86.54 795.36,104.05" fill="none" id="sgx_ra_service-to-lib_ra_network" style="stroke:#181818;stroke-width:1;"/><polygon fill="#181818" points="795.36,110.05,799.36,101.05,795.36,105.05,791.36,101.05,795.36,110.05" style="stroke:#181818;stroke-width:1;"/></g><g class="legend" data-source-line="133"><rect fill="#FFFFFF" height="147.8672" rx="7.5" ry="7.5" style="stroke:#000000;stroke-width:1;" width="916.0254" x="186.6485" y="1306.6613"/><text fill="#000000" font-family="sans-serif" font-size="20" lengthAdjust="spacing" textLength="6.3574" x="191.6485" y="1330.2257">&#160;</text><rect fill="#FFFFFF" height="23.2813" style="stroke:none;stroke-width:1;" width="906.0254" x="191.6485" y="1336.9425"/><rect fill="#EEEEEE" height="23.2813" style="stroke:none;stroke-width:1;" width="52.4414" x="191.6485" y="1336.9425"/><text fill="#000000" font-family="sans-serif" font-size="20" lengthAdjust="spacing" textLength="19.0723" x="191.6485" y="1355.507">&#160;&#160;&#160;</text><text fill="#000000" font-family="sans-serif" font-size="20" lengthAdjust="spacing" textLength="235.3711" x="250.4473" y="1355.507">Top-level tools/services</text><rect fill="#FFBA53" height="23.2813" style="stroke:none;stroke-width:1;" width="52.4414" x="492.1758" y="1336.9425"/><text fill="#000000" font-family="sans-serif" font-size="20" lengthAdjust="spacing" textLength="19.0723" x="492.1758" y="1355.507">&#160;&#160;&#160;</text><text fill="#000000" font-family="sans-serif" font-size="20" lengthAdjust="spacing" textLength="160" x="550.9746" y="1355.507">SGX Application</text><rect fill="#D6E9F8" height="23.2813" style="stroke:none;stroke-width:1;" width="52.4414" x="831.5899" y="1336.9425"/><text fill="#000000" font-family="sans-serif" font-size="20" lengthAdjust="spacing" textLength="19.0723" x="831.5899" y="1355.507">&#160;&#160;&#160;</text><text fill="#000000" font-family="sans-serif" font-size="20" lengthAdjust="spacing" textLength="200.9277" x="890.3887" y="1355.507">Core DCAP Libraries</text><rect fill="#FFFFFF" height="23.2813" style="stroke:none;stroke-width:1;" width="906.0254" x="191.6485" y="1360.2238"/><rect fill="#F7E7B2" height="23.2813" style="stroke:none;stroke-width:1;" width="52.4414" x="191.6485" y="1360.2238"/><text fill="#000000" font-family="sans-serif" font-size="20" lengthAdjust="spacing" textLength="19.0723" x="191.6485" y="1378.7882">&#160;&#160;&#160;</text><text fill="#000000" font-family="sans-serif" font-size="20" lengthAdjust="spacing" textLength="134.2676" x="250.4473" y="1378.7882">AESM Plugins</text><rect fill="#D2ECD2" height="23.2813" style="stroke:none;stroke-width:1;" width="52.4414" x="492.1758" y="1360.2238"/><text fill="#000000" font-family="sans-serif" font-size="20" lengthAdjust="spacing" textLength="19.0723" x="492.1758" y="1378.7882">&#160;&#160;&#160;</text><text fill="#000000" font-family="sans-serif" font-size="20" lengthAdjust="spacing" textLength="125.4102" x="550.9746" y="1378.7882">AE  Libraries</text><rect fill="#FFFFFF" height="64.0234" style="stroke:none;stroke-width:1;" width="906.0254" x="191.6485" y="1383.505"/><text fill="#000000" font-family="sans-serif" font-size="55" lengthAdjust="spacing" textLength="46.084" x="191.6485" y="1434.5572">&#8594;</text><text fill="#000000" font-family="sans-serif" font-size="20" lengthAdjust="spacing" textLength="6.3574" x="237.7325" y="1442.8116">&#160;</text><text fill="#000000" font-family="sans-serif" font-size="20" lengthAdjust="spacing" textLength="6.3574" x="244.0899" y="1402.0695">&#160;</text><text fill="#000000" font-family="sans-serif" font-size="20" lengthAdjust="spacing" textLength="177.7539" x="244.0899" y="1425.3507">Hard dependency</text><text fill="#000000" font-family="sans-serif" font-size="55" lengthAdjust="spacing" textLength="46.084" x="492.1758" y="1434.5572">&#8674;</text><text fill="#000000" font-family="sans-serif" font-size="20" lengthAdjust="spacing" textLength="6.3574" x="538.2598" y="1442.8116">&#160;</text><text fill="#000000" font-family="sans-serif" font-size="20" lengthAdjust="spacing" textLength="6.3574" x="544.6172" y="1402.0695">&#160;</text><text fill="#000000" font-family="sans-serif" font-size="20" lengthAdjust="spacing" textLength="280.6152" x="544.6172" y="1425.3507">Recommended dependency</text><text fill="#000000" font-family="sans-serif" font-size="55" lengthAdjust="spacing" textLength="46.084" x="831.5899" y="1434.5572">&#10513;</text><text fill="#000000" font-family="sans-serif" font-size="20" lengthAdjust="spacing" textLength="6.3574" x="877.6739" y="1442.8116">&#160;</text><text fill="#000000" font-family="sans-serif" font-size="20" lengthAdjust="spacing" textLength="6.3574" x="884.0313" y="1402.0695">&#160;</text><text fill="#000000" font-family="sans-serif" font-size="20" lengthAdjust="spacing" textLength="151.2695" x="884.0313" y="1425.3507">Optional usage</text><line style="stroke:#FFFFFF;stroke-width:1;" x1="191.6485" x2="1097.6739" y1="1336.9425" y2="1336.9425"/><line style="stroke:#FFFFFF;stroke-width:1;" x1="191.6485" x2="1097.6739" y1="1360.2238" y2="1360.2238"/><line style="stroke:#FFFFFF;stroke-width:1;" x1="191.6485" x2="1097.6739" y1="1383.505" y2="1383.505"/><line style="stroke:#FFFFFF;stroke-width:1;" x1="191.6485" x2="1097.6739" y1="1447.5284" y2="1447.5284"/><line style="stroke:#FFFFFF;stroke-width:1;" x1="191.6485" x2="191.6485" y1="1336.9425" y2="1447.5284"/><line style="stroke:#FFFFFF;stroke-width:1;" x1="244.0899" x2="244.0899" y1="1336.9425" y2="1447.5284"/><line style="stroke:#FFFFFF;stroke-width:1;" x1="492.1758" x2="492.1758" y1="1336.9425" y2="1447.5284"/><line style="stroke:#FFFFFF;stroke-width:1;" x1="544.6172" x2="544.6172" y1="1336.9425" y2="1447.5284"/><line style="stroke:#FFFFFF;stroke-width:1;" x1="831.5899" x2="831.5899" y1="1336.9425" y2="1447.5284"/><line style="stroke:#FFFFFF;stroke-width:1;" x1="884.0313" x2="884.0313" y1="1336.9425" y2="1447.5284"/><line style="stroke:#FFFFFF;stroke-width:1;" x1="1097.6739" x2="1097.6739" y1="1336.9425" y2="1447.5284"/></g><!--SRC=[bLVRSjis47tdLs3IXpmqJ6fbdDGTcJE-oEs3CytKwKndsWu78bSIQug004YnMZlVtiM5C7WHHUj5v9uz1o1siGkiYXo8L220gJs7IDuN5QU2hicSPlTBmRPLViLA9eWIj988GQK2hxAeG1C94sh50a2kQCw-5jMIB6Wf8NfDpi_FoJKia43krBu4gItHLEhd99BBXmlE3K3-YmZ-BbiJ-6wncDFJzuk5HPd8GLZaiaHNOxrXbReh_WKo-I5wYXJZNnWh1qLdvZTQCcC2RelveEJrXzdPpO-Z9Id8zUTokoogGTMRZxEFbvCNg1wTvcHsTJrUSFhEHSg5yWlZv9RkGPWmAhO4jS8NFPY0JD5gYKE_KW0nvLpGGj8oLXYDLuHAWkRKcrDj9jDf6AuaQUfWUiI2nXB4hiZ0QA0f5JHrfX5ydjt7HHuBKAA0NJWTBOLeMkGfecFdWn_WsVYCZ229aV1KBzKL9Wt1S0YA0yjWrGB1ifXhpJoZFCvXGRUbYZVSJW-nL0Ef0r84SBGm5t6urkoC4iyowUTe9BHbaEiciWAAAI7z-EwzIpqKUQUpfT28cjP2Mn2sbbwVYFcMJMinDkKuycRB5CJmuDd6aCB3IyOs6ZiGnMBVceKHiqXNyAbdPNa6SScMHUQ5q98QovZ0RE1zYuwM4NJSq7L8X9BuzXmE_JvYPAYoakuWpjXwpIfFT-RKciS8bNHRPIilO5zVd5bO3hROJhmCrWBzFYwgICR6zPM9-v3lJ7rnT5lvOdRtYTXgFRoHTLNtgHTpmp13sSSm2LiDe7V9Z1nakQGzMiR-4Y6TWbqPRhRZQ14RjXuT7yz1AQ_JhkdQ69I7heWFnSYQYXM8EtqiFFLN3cOeKd1NrHHy74Kf_I3bk36m6xdTKnEn0pdBk4a-CpTTYcy_LONaWbNsoFMQ_5BaELHlo3zRgSW2cxvfxL4pVd7yvyhu_PtOJnh6SP6EEEoEA3n_-x0VHZ2oUY7GroHxt1gDy82CwtLw_JxHFTdYyRNkyT- -9M47wjZhRNs043GBhVuRwA89LGuvoO7hXoh3T8x29lVsRKkw3-pADpgTTciLdgYdTjTgTjsZe3W70W7OxO2rWkuf0ouk7VhENGs58GTNxm_wk4mPW8E4qvk2Ye4en77IxDMzg6_5FluruXVakTaVWTpycns-msb2RX_s0i7N-gvVopNp86eVqcgt8FHzi4-jTe_J3c6lwdLer_weqTq22Tw77M9pDxzZU3EsBT25ebsL3gi6BhPqjYuhzOXX3lV3xaXIr_9RM69-cZ8UNCADiNjZDB-ENtYjYwo9p9bIR1r5KqTwu_wJnwcx8ITuOdpKbpxiSZieYTv7yfsRi4Hewk_drlNkvpy8NeRA8gEwzH1KiXTZ2vixqVNLnUUWYJ_sZcyllfRLE7xfCUqbjWR9CJ69t_tJwMao_VtxoSdP9C5BBLeI9FzLDVV_dhIyPqtltjBT9fsTd3H8ltAz5BJ4baANW5D4cet0_m00]--></g></svg>