<svg width="3777" height="723" xmlns="http://www.w3.org/2000/svg" xmlns:xlink="http://www.w3.org/1999/xlink" xml:space="preserve" overflow="hidden"><g transform="translate(-272 -852)"><path d="M274.302 860.642 1216.76 860.642 1216.76 1002.1 274.302 1002.1Z" fill="#FFFFFF" fill-rule="evenodd"/><path d="M1216.76 860.642 2159.23 860.642 2159.23 1002.1 1216.76 1002.1Z" fill="#FFFFFF" fill-rule="evenodd"/><path d="M2159.23 860.642 3101.69 860.642 3101.69 1002.1 2159.23 1002.1Z" fill="#FFFFFF" fill-rule="evenodd"/><path d="M3101.69 860.642 4044.15 860.642 4044.15 1002.1 3101.69 1002.1Z" fill="#FFFFFF" fill-rule="evenodd"/><path d="M274.302 1002.1 745.533 1002.1 745.533 1143.56 274.302 1143.56Z" fill="#FFFFFF" fill-rule="evenodd"/><path d="M745.533 1002.1 1216.76 1002.1 1216.76 1143.56 745.533 1143.56Z" fill="#FFFFFF" fill-rule="evenodd"/><path d="M1216.76 1002.1 1687.99 1002.1 1687.99 1143.56 1216.76 1143.56Z" fill="#FFFFFF" fill-rule="evenodd"/><path d="M1687.99 1002.1 2159.23 1002.1 2159.23 1143.56 1687.99 1143.56Z" fill="#FFFFFF" fill-rule="evenodd"/><path d="M2159.23 1002.1 2630.46 1002.1 2630.46 1143.56 2159.23 1143.56Z" fill="#FFFFFF" fill-rule="evenodd"/><path d="M2630.46 1002.1 3101.69 1002.1 3101.69 1143.56 2630.46 1143.56Z" fill="#FFFFFF" fill-rule="evenodd"/><path d="M3101.69 1002.1 3572.92 1002.1 3572.92 1143.56 3101.69 1143.56Z" fill="#FFFFFF" fill-rule="evenodd"/><path d="M3572.92 1002.1 4044.15 1002.1 4044.15 1143.56 3572.92 1143.56Z" fill="#FFFFFF" fill-rule="evenodd"/><path d="M274.302 1143.56 509.917 1143.56 509.917 1285.02 274.302 1285.02Z" fill="#FFFFFF" fill-rule="evenodd"/><path d="M509.917 1143.56 745.533 1143.56 745.533 1285.02 509.917 1285.02Z" fill="#FFFFFF" fill-rule="evenodd"/><path d="M745.533 1143.56 981.148 1143.56 981.148 1285.02 745.533 1285.02Z" fill="#FFFFFF" fill-rule="evenodd"/><path d="M981.148 1143.56 1216.76 1143.56 1216.76 1285.02 981.148 1285.02Z" fill="#FFFFFF" fill-rule="evenodd"/><path d="M1216.76 1143.56 1452.38 1143.56 1452.38 1285.02 1216.76 1285.02Z" fill="#FFFFFF" fill-rule="evenodd"/><path d="M1452.38 1143.56 1687.99 1143.56 1687.99 1285.02 1452.38 1285.02Z" fill="#FFFFFF" fill-rule="evenodd"/><path d="M1687.99 1143.56 1923.61 1143.56 1923.61 1285.02 1687.99 1285.02Z" fill="#FFFFFF" fill-rule="evenodd"/><path d="M1923.61 1143.56 2159.23 1143.56 2159.23 1285.02 1923.61 1285.02Z" fill="#FFFFFF" fill-rule="evenodd"/><path d="M2159.23 1143.56 2394.84 1143.56 2394.84 1285.02 2159.23 1285.02Z" fill="#FFFFFF" fill-rule="evenodd"/><path d="M2394.84 1143.56 2630.46 1143.56 2630.46 1285.02 2394.84 1285.02Z" fill="#FFFFFF" fill-rule="evenodd"/><path d="M2630.46 1143.56 2866.07 1143.56 2866.07 1285.02 2630.46 1285.02Z" fill="#FFFFFF" fill-rule="evenodd"/><path d="M2866.07 1143.56 3101.69 1143.56 3101.69 1285.02 2866.07 1285.02Z" fill="#FFFFFF" fill-rule="evenodd"/><path d="M3101.69 1143.56 3337.3 1143.56 3337.3 1285.02 3101.69 1285.02Z" fill="#FFFFFF" fill-rule="evenodd"/><path d="M3337.3 1143.56 3572.92 1143.56 3572.92 1285.02 3337.3 1285.02Z" fill="#FFFFFF" fill-rule="evenodd"/><path d="M3572.92 1143.56 3808.53 1143.56 3808.53 1285.02 3572.92 1285.02Z" fill="#FFFFFF" fill-rule="evenodd"/><path d="M3808.53 1143.56 4044.15 1143.56 4044.15 1285.02 3808.53 1285.02Z" fill="#FFFFFF" fill-rule="evenodd"/><path d="M274.302 1285.02 509.917 1285.02 509.917 1426.48 274.302 1426.48Z" fill="#69BCFF" fill-rule="evenodd"/><path d="M509.917 1285.02 745.533 1285.02 745.533 1426.48 509.917 1426.48Z" fill="#DCDCDC" fill-rule="evenodd"/><path d="M745.533 1285.02 981.148 1285.02 981.148 1426.48 745.533 1426.48Z" fill="#69BCFF" fill-rule="evenodd"/><path d="M981.148 1285.02 1216.76 1285.02 1216.76 1426.48 981.148 1426.48Z" fill="#DCDCDC" fill-rule="evenodd"/><path d="M1216.76 1285.02 1452.38 1285.02 1452.38 1426.48 1216.76 1426.48Z" fill="#69BCFF" fill-rule="evenodd"/><path d="M1452.38 1285.02 1687.99 1285.02 1687.99 1426.48 1452.38 1426.48Z" fill="#DCDCDC" fill-rule="evenodd"/><path d="M1687.99 1285.02 1923.61 1285.02 1923.61 1426.48 1687.99 1426.48Z" fill="#69BCFF" fill-rule="evenodd"/><path d="M1923.61 1285.02 2159.23 1285.02 2159.23 1426.48 1923.61 1426.48Z" fill="#DCDCDC" fill-rule="evenodd"/><path d="M2159.23 1285.02 2394.84 1285.02 2394.84 1426.48 2159.23 1426.48Z" fill="#69BCFF" fill-rule="evenodd"/><path d="M2394.84 1285.02 2630.46 1285.02 2630.46 1426.48 2394.84 1426.48Z" fill="#DCDCDC" fill-rule="evenodd"/><path d="M2630.46 1285.02 2866.07 1285.02 2866.07 1426.48 2630.46 1426.48Z" fill="#69BCFF" fill-rule="evenodd"/><path d="M2866.07 1285.02 3101.69 1285.02 3101.69 1426.48 2866.07 1426.48Z" fill="#DCDCDC" fill-rule="evenodd"/><path d="M3101.69 1285.02 3337.3 1285.02 3337.3 1426.48 3101.69 1426.48Z" fill="#69BCFF" fill-rule="evenodd"/><path d="M3337.3 1285.02 3572.92 1285.02 3572.92 1426.48 3337.3 1426.48Z" fill="#DCDCDC" fill-rule="evenodd"/><path d="M3572.92 1285.02 3808.53 1285.02 3808.53 1426.48 3572.92 1426.48Z" fill="#69BCFF" fill-rule="evenodd"/><path d="M3808.53 1285.02 4044.15 1285.02 4044.15 1426.48 3808.53 1426.48Z" fill="#DCDCDC" fill-rule="evenodd"/><path d="M274.302 1426.48 509.917 1426.48 509.917 1567.94 274.302 1567.94Z" fill="#69BCFF" fill-rule="evenodd"/><path d="M509.917 1426.48 745.533 1426.48 745.533 1567.94 509.917 1567.94Z" fill="#69BCFF" fill-rule="evenodd"/><path d="M745.533 1426.48 981.148 1426.48 981.148 1567.94 745.533 1567.94Z" fill="#69BCFF" fill-rule="evenodd"/><path d="M981.148 1426.48 1216.76 1426.48 1216.76 1567.94 981.148 1567.94Z" fill="#69BCFF" fill-rule="evenodd"/><path d="M1216.76 1426.48 1452.38 1426.48 1452.38 1567.94 1216.76 1567.94Z" fill="#69BCFF" fill-rule="evenodd"/><path d="M1452.38 1426.48 1687.99 1426.48 1687.99 1567.94 1452.38 1567.94Z" fill="#69BCFF" fill-rule="evenodd"/><path d="M1687.99 1426.48 1923.61 1426.48 1923.61 1567.94 1687.99 1567.94Z" fill="#69BCFF" fill-rule="evenodd"/><path d="M1923.61 1426.48 2159.23 1426.48 2159.23 1567.94 1923.61 1567.94Z" fill="#69BCFF" fill-rule="evenodd"/><path d="M2159.23 1426.48 2394.84 1426.48 2394.84 1567.94 2159.23 1567.94Z" fill="#69BCFF" fill-rule="evenodd"/><path d="M2394.84 1426.48 2630.46 1426.48 2630.46 1567.94 2394.84 1567.94Z" fill="#69BCFF" fill-rule="evenodd"/><path d="M2630.46 1426.48 2866.07 1426.48 2866.07 1567.94 2630.46 1567.94Z" fill="#69BCFF" fill-rule="evenodd"/><path d="M2866.07 1426.48 3101.69 1426.48 3101.69 1567.94 2866.07 1567.94Z" fill="#69BCFF" fill-rule="evenodd"/><path d="M3101.69 1426.48 3337.3 1426.48 3337.3 1567.94 3101.69 1567.94Z" fill="#69BCFF" fill-rule="evenodd"/><path d="M3337.3 1426.48 3572.92 1426.48 3572.92 1567.94 3337.3 1567.94Z" fill="#69BCFF" fill-rule="evenodd"/><path d="M3572.92 1426.48 3808.53 1426.48 3808.53 1567.94 3572.92 1567.94Z" fill="#69BCFF" fill-rule="evenodd"/><path d="M3808.53 1426.48 4044.15 1426.48 4044.15 1567.94 3808.53 1567.94Z" fill="#69BCFF" fill-rule="evenodd"/><path d="M509.917 1141.27 509.917 1570.23" stroke="#525252" stroke-width="4.58333" stroke-linejoin="round" stroke-miterlimit="10" fill="none" fill-rule="evenodd"/><path d="M745.533 999.81 745.533 1570.23" stroke="#525252" stroke-width="4.58333" stroke-linejoin="round" stroke-miterlimit="10" fill="none" fill-rule="evenodd"/><path d="M981.148 1141.27 981.148 1570.23" stroke="#525252" stroke-width="4.58333" stroke-linejoin="round" stroke-miterlimit="10" fill="none" fill-rule="evenodd"/><path d="M1216.76 858.35 1216.76 1570.23" stroke="#525252" stroke-width="4.58333" stroke-linejoin="round" stroke-miterlimit="10" fill="none" fill-rule="evenodd"/><path d="M1452.38 1141.27 1452.38 1570.23" stroke="#525252" stroke-width="4.58333" stroke-linejoin="round" stroke-miterlimit="10" fill="none" fill-rule="evenodd"/><path d="M1687.99 999.81 1687.99 1570.23" stroke="#525252" stroke-width="4.58333" stroke-linejoin="round" stroke-miterlimit="10" fill="none" fill-rule="evenodd"/><path d="M1923.61 1141.27 1923.61 1570.23" stroke="#525252" stroke-width="4.58333" stroke-linejoin="round" stroke-miterlimit="10" fill="none" fill-rule="evenodd"/><path d="M2159.23 858.35 2159.23 1570.23" stroke="#525252" stroke-width="4.58333" stroke-linejoin="round" stroke-miterlimit="10" fill="none" fill-rule="evenodd"/><path d="M2394.84 1141.27 2394.84 1570.23" stroke="#525252" stroke-width="4.58333" stroke-linejoin="round" stroke-miterlimit="10" fill="none" fill-rule="evenodd"/><path d="M2630.46 999.81 2630.46 1570.23" stroke="#525252" stroke-width="4.58333" stroke-linejoin="round" stroke-miterlimit="10" fill="none" fill-rule="evenodd"/><path d="M2866.07 1141.27 2866.07 1570.23" stroke="#525252" stroke-width="4.58333" stroke-linejoin="round" stroke-miterlimit="10" fill="none" fill-rule="evenodd"/><path d="M3101.69 858.35 3101.69 1570.23" stroke="#525252" stroke-width="4.58333" stroke-linejoin="round" stroke-miterlimit="10" fill="none" fill-rule="evenodd"/><path d="M3337.3 1141.27 3337.3 1570.23" stroke="#525252" stroke-width="4.58333" stroke-linejoin="round" stroke-miterlimit="10" fill="none" fill-rule="evenodd"/><path d="M3572.92 999.81 3572.92 1570.23" stroke="#525252" stroke-width="4.58333" stroke-linejoin="round" stroke-miterlimit="10" fill="none" fill-rule="evenodd"/><path d="M3808.53 1141.27 3808.53 1570.23" stroke="#525252" stroke-width="4.58333" stroke-linejoin="round" stroke-miterlimit="10" fill="none" fill-rule="evenodd"/><path d="M272.01 1002.1 4046.44 1002.1" stroke="#525252" stroke-width="4.58333" stroke-linejoin="round" stroke-miterlimit="10" fill="none" fill-rule="evenodd"/><path d="M272.01 1143.56 4046.44 1143.56" stroke="#525252" stroke-width="4.58333" stroke-linejoin="round" stroke-miterlimit="10" fill="none" fill-rule="evenodd"/><path d="M272.01 1285.02 4046.44 1285.02" stroke="#525252" stroke-width="4.58333" stroke-linejoin="round" stroke-miterlimit="10" fill="none" fill-rule="evenodd"/><path d="M272.01 1426.48 4046.44 1426.48" stroke="#525252" stroke-width="4.58333" stroke-linejoin="round" stroke-miterlimit="10" fill="none" fill-rule="evenodd"/><path d="M274.302 858.35 274.302 1570.23" stroke="#525252" stroke-width="4.58333" stroke-linejoin="round" stroke-miterlimit="10" fill="none" fill-rule="evenodd"/><path d="M4044.15 858.35 4044.15 1570.23" stroke="#525252" stroke-width="4.58333" stroke-linejoin="round" stroke-miterlimit="10" fill="none" fill-rule="evenodd"/><path d="M272.01 860.642 4046.44 860.642" stroke="#525252" stroke-width="4.58333" stroke-linejoin="round" stroke-miterlimit="10" fill="none" fill-rule="evenodd"/><path d="M272.01 1567.94 4046.44 1567.94" stroke="#525252" stroke-width="4.58333" stroke-linejoin="round" stroke-miterlimit="10" fill="none" fill-rule="evenodd"/><text fill="#292929" font-family="IntelOne Text Light,IntelOne Text Light_MSFontService,sans-serif" font-weight="700" font-size="83" transform="matrix(1 0 0 1 3466.93 957)">IMC3</text><text fill="#292929" font-family="IntelOne Text Light,IntelOne Text Light_MSFontService,sans-serif" font-weight="700" font-size="83" transform="matrix(1 0 0 1 2525.04 957)">IMC2</text><text fill="#292929" font-family="IntelOne Text Light,IntelOne Text Light_MSFontService,sans-serif" font-weight="700" font-size="83" transform="matrix(1 0 0 1 1594.32 957)">IMC1</text><text fill="#292929" font-family="IntelOne Text Light,IntelOne Text Light_MSFontService,sans-serif" font-weight="700" font-size="83" transform="matrix(1 0 0 1 637.538 957)">IMC0</text><text fill="#292929" font-family="IntelOne Text Light,IntelOne Text Light_MSFontService,sans-serif" font-weight="300" font-size="73" transform="matrix(1 0 0 1 3633.51 1090)">Chan 1 (H)</text><text fill="#292929" font-family="IntelOne Text Light,IntelOne Text Light_MSFontService,sans-serif" font-weight="300" font-size="73" transform="matrix(1 0 0 1 3148.53 1090)">Chan 0 (G)</text><text fill="#292929" font-family="IntelOne Text Light,IntelOne Text Light_MSFontService,sans-serif" font-weight="300" font-size="73" transform="matrix(1 0 0 1 2695.92 1090)">Chan 1 (F)</text><text fill="#292929" font-family="IntelOne Text Light,IntelOne Text Light_MSFontService,sans-serif" font-weight="300" font-size="73" transform="matrix(1 0 0 1 2211.22 1090)">Chan 0 (E)</text><text fill="#292929" font-family="IntelOne Text Light,IntelOne Text Light_MSFontService,sans-serif" font-weight="300" font-size="73" transform="matrix(1 0 0 1 1748.87 1090)">Chan 1 (D)</text><text fill="#292929" font-family="IntelOne Text Light,IntelOne Text Light_MSFontService,sans-serif" font-weight="300" font-size="73" transform="matrix(1 0 0 1 1265.32 1090)">Chan 0 (C)</text><text fill="#292929" font-family="IntelOne Text Light,IntelOne Text Light_MSFontService,sans-serif" font-weight="300" font-size="73" transform="matrix(1 0 0 1 806.695 1090)">Chan 1 (A)</text><text fill="#292929" font-family="IntelOne Text Light,IntelOne Text Light_MSFontService,sans-serif" font-weight="300" font-size="73" transform="matrix(1 0 0 1 322.86 1090)">Chan 0 (A)</text><g><text fill="#292929" font-family="IntelOne Text Light,IntelOne Text Light_MSFontService,sans-serif" font-weight="300" font-size="73" transform="matrix(1 0 0 1 3844.99 1231)">Slot1</text></g><g><text fill="#292929" font-family="IntelOne Text Light,IntelOne Text Light_MSFontService,sans-serif" font-weight="300" font-size="73" transform="matrix(1 0 0 1 3596.77 1231)">Slot0</text></g><g><text fill="#292929" font-family="IntelOne Text Light,IntelOne Text Light_MSFontService,sans-serif" font-weight="300" font-size="73" transform="matrix(1 0 0 1 3373.76 1231)">Slot1</text></g><g><text fill="#292929" font-family="IntelOne Text Light,IntelOne Text Light_MSFontService,sans-serif" font-weight="300" font-size="73" transform="matrix(1 0 0 1 3125.54 1231)">Slot0</text></g><g><text fill="#292929" font-family="IntelOne Text Light,IntelOne Text Light_MSFontService,sans-serif" font-weight="300" font-size="73" transform="matrix(1 0 0 1 2902.53 1231)">Slot1</text></g><g><text fill="#292929" font-family="IntelOne Text Light,IntelOne Text Light_MSFontService,sans-serif" font-weight="300" font-size="73" transform="matrix(1 0 0 1 2654.31 1231)">Slot0</text></g><g><text fill="#292929" font-family="IntelOne Text Light,IntelOne Text Light_MSFontService,sans-serif" font-weight="300" font-size="73" transform="matrix(1 0 0 1 2431.29 1231)">Slot1</text></g><g><text fill="#292929" font-family="IntelOne Text Light,IntelOne Text Light_MSFontService,sans-serif" font-weight="300" font-size="73" transform="matrix(1 0 0 1 2183.07 1231)">Slot0</text></g><g><text fill="#292929" font-family="IntelOne Text Light,IntelOne Text Light_MSFontService,sans-serif" font-weight="300" font-size="73" transform="matrix(1 0 0 1 1960.06 1231)">Slot1</text></g><g><text fill="#292929" font-family="IntelOne Text Light,IntelOne Text Light_MSFontService,sans-serif" font-weight="300" font-size="73" transform="matrix(1 0 0 1 1711.84 1231)">Slot0</text></g><g><text fill="#292929" font-family="IntelOne Text Light,IntelOne Text Light_MSFontService,sans-serif" font-weight="300" font-size="73" transform="matrix(1 0 0 1 1488.83 1231)">Slot1</text></g><g><text fill="#292929" font-family="IntelOne Text Light,IntelOne Text Light_MSFontService,sans-serif" font-weight="300" font-size="73" transform="matrix(1 0 0 1 1240.61 1231)">Slot0</text></g><g><text fill="#292929" font-family="IntelOne Text Light,IntelOne Text Light_MSFontService,sans-serif" font-weight="300" font-size="73" transform="matrix(1 0 0 1 1017.6 1231)">Slot1</text></g><g><text fill="#292929" font-family="IntelOne Text Light,IntelOne Text Light_MSFontService,sans-serif" font-weight="300" font-size="73" transform="matrix(1 0 0 1 769.382 1231)">Slot0</text></g><g><text fill="#292929" font-family="IntelOne Text Light,IntelOne Text Light_MSFontService,sans-serif" font-weight="300" font-size="73" transform="matrix(1 0 0 1 546.371 1231)">Slot1</text></g><g><text fill="#292929" font-family="IntelOne Text Light,IntelOne Text Light_MSFontService,sans-serif" font-weight="300" font-size="73" transform="matrix(1 0 0 1 298.151 1231)">Slot0</text></g><g><text fill="#292929" font-family="IntelOne Text Light,IntelOne Text Light_MSFontService,sans-serif" font-weight="300" font-size="73" transform="matrix(1 0 0 1 3586.74 1373)">DIMM</text></g><g><text fill="#292929" font-family="IntelOne Text Light,IntelOne Text Light_MSFontService,sans-serif" font-weight="300" font-size="73" transform="matrix(1 0 0 1 3115.51 1373)">DIMM</text></g><g><text fill="#292929" font-family="IntelOne Text Light,IntelOne Text Light_MSFontService,sans-serif" font-weight="300" font-size="73" transform="matrix(1 0 0 1 2644.28 1373)">DIMM</text></g><g><text fill="#292929" font-family="IntelOne Text Light,IntelOne Text Light_MSFontService,sans-serif" font-weight="300" font-size="73" transform="matrix(1 0 0 1 2173.05 1373)">DIMM</text></g><g><text fill="#292929" font-family="IntelOne Text Light,IntelOne Text Light_MSFontService,sans-serif" font-weight="300" font-size="73" transform="matrix(1 0 0 1 1701.82 1373)">DIMM</text></g><g><text fill="#292929" font-family="IntelOne Text Light,IntelOne Text Light_MSFontService,sans-serif" font-weight="300" font-size="73" transform="matrix(1 0 0 1 1230.59 1373)">DIMM</text></g><g><text fill="#292929" font-family="IntelOne Text Light,IntelOne Text Light_MSFontService,sans-serif" font-weight="300" font-size="73" transform="matrix(1 0 0 1 759.356 1373)">DIMM</text></g><g><text fill="#292929" font-family="IntelOne Text Light,IntelOne Text Light_MSFontService,sans-serif" font-weight="300" font-size="73" transform="matrix(1 0 0 1 288.125 1373)">DIMM</text></g><g><text fill="#292929" font-family="IntelOne Text Light,IntelOne Text Light_MSFontService,sans-serif" font-weight="300" font-size="73" transform="matrix(1 0 0 1 3822.36 1514)">DIMM</text></g><g><text fill="#292929" font-family="IntelOne Text Light,IntelOne Text Light_MSFontService,sans-serif" font-weight="300" font-size="73" transform="matrix(1 0 0 1 3586.74 1514)">DIMM</text></g><g><text fill="#292929" font-family="IntelOne Text Light,IntelOne Text Light_MSFontService,sans-serif" font-weight="300" font-size="73" transform="matrix(1 0 0 1 3351.13 1514)">DIMM</text></g><g><text fill="#292929" font-family="IntelOne Text Light,IntelOne Text Light_MSFontService,sans-serif" font-weight="300" font-size="73" transform="matrix(1 0 0 1 3115.51 1514)">DIMM</text></g><g><text fill="#292929" font-family="IntelOne Text Light,IntelOne Text Light_MSFontService,sans-serif" font-weight="300" font-size="73" transform="matrix(1 0 0 1 2879.9 1514)">DIMM</text></g><g><text fill="#292929" font-family="IntelOne Text Light,IntelOne Text Light_MSFontService,sans-serif" font-weight="300" font-size="73" transform="matrix(1 0 0 1 2644.28 1514)">DIMM</text></g><g><text fill="#292929" font-family="IntelOne Text Light,IntelOne Text Light_MSFontService,sans-serif" font-weight="300" font-size="73" transform="matrix(1 0 0 1 2408.66 1514)">DIMM</text></g><g><text fill="#292929" font-family="IntelOne Text Light,IntelOne Text Light_MSFontService,sans-serif" font-weight="300" font-size="73" transform="matrix(1 0 0 1 2173.05 1514)">DIMM</text></g><g><text fill="#292929" font-family="IntelOne Text Light,IntelOne Text Light_MSFontService,sans-serif" font-weight="300" font-size="73" transform="matrix(1 0 0 1 1937.43 1514)">DIMM</text></g><g><text fill="#292929" font-family="IntelOne Text Light,IntelOne Text Light_MSFontService,sans-serif" font-weight="300" font-size="73" transform="matrix(1 0 0 1 1701.82 1514)">DIMM</text></g><g><text fill="#292929" font-family="IntelOne Text Light,IntelOne Text Light_MSFontService,sans-serif" font-weight="300" font-size="73" transform="matrix(1 0 0 1 1466.2 1514)">DIMM</text></g><g><text fill="#292929" font-family="IntelOne Text Light,IntelOne Text Light_MSFontService,sans-serif" font-weight="300" font-size="73" transform="matrix(1 0 0 1 1230.59 1514)">DIMM</text></g><g><text fill="#292929" font-family="IntelOne Text Light,IntelOne Text Light_MSFontService,sans-serif" font-weight="300" font-size="73" transform="matrix(1 0 0 1 994.972 1514)">DIMM</text></g><g><text fill="#292929" font-family="IntelOne Text Light,IntelOne Text Light_MSFontService,sans-serif" font-weight="300" font-size="73" transform="matrix(1 0 0 1 759.356 1514)">DIMM</text></g><g><text fill="#292929" font-family="IntelOne Text Light,IntelOne Text Light_MSFontService,sans-serif" font-weight="300" font-size="73" transform="matrix(1 0 0 1 523.741 1514)">DIMM</text></g><g><text fill="#292929" font-family="IntelOne Text Light,IntelOne Text Light_MSFontService,sans-serif" font-weight="300" font-size="73" transform="matrix(1 0 0 1 288.125 1514)">DIMM</text></g></g></svg>